<svg width="82" height="22" viewBox="0 0 82 22" fill="none" xmlns="http://www.w3.org/2000/svg">
<rect y="2" width="82" height="18" rx="5" fill="url(#paint0_linear_673_2863)"/>
<g filter="url(#filter0_d_673_2863)">
<path d="M23.8555 15H20.7617V6.26953H23.8789C24.7578 6.26953 25.5137 6.44531 26.1465 6.79688C26.7793 7.14453 27.2656 7.64453 27.6055 8.29688C27.9492 8.94531 28.1211 9.72266 28.1211 10.6289C28.1211 11.5391 27.9492 12.3203 27.6055 12.9727C27.2656 13.625 26.7773 14.127 26.1406 14.4785C25.5039 14.8262 24.7422 15 23.8555 15ZM22.6016 13.418H23.7734C24.5977 13.418 25.2227 13.1973 25.6484 12.7559C26.0742 12.3145 26.2871 11.6055 26.2871 10.6289C26.2871 9.66016 26.0742 8.95508 25.6484 8.51367C25.2227 8.07227 24.5977 7.85156 23.7734 7.85156H22.6016V13.418ZM29.457 8.44922H31.2734V15.3281C31.2734 16.082 31.0508 16.623 30.6055 16.9512C30.1641 17.2832 29.5586 17.4492 28.7891 17.4492H28.4258V16.0312H28.6602C28.9531 16.0312 29.1582 15.9688 29.2754 15.8438C29.3965 15.7227 29.457 15.541 29.457 15.2988V8.44922ZM30.3594 7.61133C30.0898 7.61133 29.8574 7.52148 29.6621 7.3418C29.4707 7.16211 29.375 6.94531 29.375 6.69141C29.375 6.4375 29.4707 6.22266 29.6621 6.04688C29.8574 5.86719 30.0898 5.77734 30.3594 5.77734C30.6289 5.77734 30.8594 5.86719 31.0508 6.04688C31.2461 6.22266 31.3438 6.4375 31.3438 6.69141C31.3438 6.94531 31.2461 7.16211 31.0508 7.3418C30.8594 7.52148 30.6289 7.61133 30.3594 7.61133ZM34.5957 15.123C33.9707 15.123 33.4512 14.9609 33.0371 14.6367C32.627 14.3086 32.4219 13.8203 32.4219 13.1719C32.4219 12.6836 32.5352 12.3008 32.7617 12.0234C32.9922 11.7422 33.2949 11.5371 33.6699 11.4082C34.0449 11.2754 34.4473 11.1895 34.877 11.1504C35.4473 11.0957 35.8535 11.0391 36.0957 10.9805C36.3418 10.918 36.4648 10.7812 36.4648 10.5703V10.541C36.4648 10.2715 36.3789 10.0625 36.207 9.91406C36.0352 9.76562 35.7871 9.69141 35.4629 9.69141C35.1387 9.69141 34.873 9.76172 34.666 9.90234C34.4629 10.043 34.3281 10.2227 34.2617 10.4414L32.6094 10.1777C32.7656 9.60742 33.0938 9.16406 33.5938 8.84766C34.0977 8.52734 34.7227 8.36719 35.4688 8.36719C35.9531 8.36719 36.4082 8.44336 36.834 8.5957C37.2637 8.74805 37.6113 8.98828 37.877 9.31641C38.1426 9.64062 38.2754 10.0625 38.2754 10.582V15H36.5586V14.0859H36.5059C36.3457 14.3945 36.1074 14.6445 35.791 14.8359C35.4785 15.0273 35.0801 15.123 34.5957 15.123ZM34.1504 13.1133C34.1504 13.3633 34.2402 13.5527 34.4199 13.6816C34.6035 13.8066 34.834 13.8691 35.1113 13.8691C35.5098 13.8691 35.8359 13.7539 36.0898 13.5234C36.3477 13.293 36.4766 13.0059 36.4766 12.6621V11.9648C36.4062 12.0117 36.2949 12.0547 36.1426 12.0938C35.9941 12.1328 35.8359 12.166 35.668 12.1934C35.5 12.2168 35.3496 12.2383 35.2168 12.2578C34.8965 12.3047 34.6387 12.3965 34.4434 12.5332C34.248 12.666 34.1504 12.8594 34.1504 13.1133ZM41.5508 11.2148V15H39.7344V8.44922H41.5215V9.61523H41.5859C41.7344 9.23242 41.9707 8.92969 42.2949 8.70703C42.6191 8.48047 43.0234 8.36719 43.5078 8.36719C44.1914 8.36719 44.7383 8.58789 45.1484 9.0293C45.5625 9.4668 45.7695 10.0684 45.7695 10.834V15H43.9531V11.1562C43.9531 10.7539 43.8496 10.4395 43.6426 10.2129C43.4395 9.98633 43.1562 9.87305 42.793 9.87305C42.4258 9.87305 42.127 9.99219 41.8965 10.2305C41.666 10.4648 41.5508 10.793 41.5508 11.2148ZM50.1582 17.5898C49.2754 17.5898 48.582 17.4141 48.0781 17.0625C47.5781 16.7148 47.2754 16.2812 47.1699 15.7617L48.8457 15.5391C48.9199 15.7383 49.0625 15.9121 49.2734 16.0605C49.4883 16.209 49.7969 16.2832 50.1992 16.2832C50.5938 16.2832 50.9199 16.1875 51.1777 15.9961C51.4355 15.8086 51.5645 15.4902 51.5645 15.041V13.8398H51.4824C51.3652 14.1133 51.1543 14.3594 50.8496 14.5781C50.5488 14.7969 50.1367 14.9062 49.6133 14.9062C49.125 14.9062 48.6797 14.793 48.2773 14.5664C47.875 14.3359 47.5547 13.9844 47.3164 13.5117C47.0781 13.0391 46.959 12.4414 46.959 11.7188C46.959 10.9727 47.0801 10.3516 47.3223 9.85547C47.5684 9.35938 47.8926 8.98828 48.2949 8.74219C48.6973 8.49219 49.1387 8.36719 49.6191 8.36719C49.9824 8.36719 50.2891 8.42969 50.5391 8.55469C50.7891 8.67578 50.9902 8.82812 51.1426 9.01172C51.2988 9.19531 51.418 9.37695 51.5 9.55664H51.5703V8.44922H53.3516V15.0703C53.3516 15.625 53.2148 16.0898 52.9414 16.4648C52.668 16.8398 52.291 17.1211 51.8105 17.3086C51.334 17.4961 50.7832 17.5898 50.1582 17.5898ZM48.8164 11.707C48.8164 12.2695 48.9336 12.7168 49.168 13.0488C49.4062 13.377 49.748 13.541 50.1934 13.541C50.6309 13.541 50.9688 13.3789 51.207 13.0547C51.4492 12.7305 51.5703 12.2812 51.5703 11.707C51.5703 11.1328 51.4512 10.6738 51.2129 10.3301C50.9746 9.98242 50.6348 9.80859 50.1934 9.80859C49.7441 9.80859 49.4023 9.98633 49.168 10.3418C48.9336 10.6934 48.8164 11.1484 48.8164 11.707ZM57.7578 15.1289C57.0977 15.1289 56.5254 14.9883 56.041 14.707C55.5605 14.4219 55.1895 14.0273 54.9277 13.5234C54.6699 13.0156 54.541 12.4258 54.541 11.7539C54.541 11.0781 54.6699 10.4863 54.9277 9.97852C55.1895 9.4707 55.5605 9.07617 56.041 8.79492C56.5254 8.50977 57.0977 8.36719 57.7578 8.36719C58.4219 8.36719 58.9941 8.50977 59.4746 8.79492C59.959 9.07617 60.3301 9.4707 60.5879 9.97852C60.8496 10.4863 60.9805 11.0781 60.9805 11.7539C60.9805 12.4258 60.8496 13.0156 60.5879 13.5234C60.3301 14.0273 59.959 14.4219 59.4746 14.707C58.9941 14.9883 58.4219 15.1289 57.7578 15.1289ZM56.3867 11.7422C56.3867 12.3125 56.502 12.7832 56.7324 13.1543C56.9629 13.5254 57.3066 13.7109 57.7637 13.7109C58.2168 13.7109 58.5586 13.5254 58.7891 13.1543C59.0195 12.7832 59.1348 12.3125 59.1348 11.7422C59.1348 11.1719 59.0195 10.7031 58.7891 10.3359C58.5586 9.96875 58.2168 9.78516 57.7637 9.78516C57.3066 9.78516 56.9629 9.96875 56.7324 10.3359C56.502 10.7031 56.3867 11.1719 56.3867 11.7422Z" fill="white"/>
</g>
<defs>
<filter id="filter0_d_673_2863" x="19.7617" y="5.77734" width="41.2188" height="12.3125" filterUnits="userSpaceOnUse" color-interpolation-filters="sRGB">
<feFlood flood-opacity="0" result="BackgroundImageFix"/>
<feColorMatrix in="SourceAlpha" type="matrix" values="0 0 0 0 0 0 0 0 0 0 0 0 0 0 0 0 0 0 127 0" result="hardAlpha"/>
<feOffset dx="-1" dy="0.5"/>
<feComposite in2="hardAlpha" operator="out"/>
<feColorMatrix type="matrix" values="0 0 0 0 0 0 0 0 0 0 0 0 0 0 0 0 0 0 0.25 0"/>
<feBlend mode="normal" in2="BackgroundImageFix" result="effect1_dropShadow_673_2863"/>
<feBlend mode="normal" in="SourceGraphic" in2="effect1_dropShadow_673_2863" result="shape"/>
</filter>
<linearGradient id="paint0_linear_673_2863" x1="41" y1="20" x2="41" y2="2" gradientUnits="userSpaceOnUse">
<stop stop-color="#003D2B"/>
<stop offset="0.9" stop-color="#006A4B"/>
</linearGradient>
</defs>
</svg>
