<svg width="131" height="18" viewBox="0 0 131 18" fill="none" xmlns="http://www.w3.org/2000/svg">
<rect width="131" height="18" rx="5" fill="url(#paint0_linear_676_2888)"/>
<path d="M106.961 15L111 9L106.961 3H96L100.04 9L96 15H106.961Z" stroke="white" stroke-linecap="round" stroke-linejoin="round"/>
<g filter="url(#filter0_d_676_2888)">
<path d="M23.6895 5.31836V7.7793H27.4453V5.31836C27.4453 4.9668 27.5234 4.70312 27.6797 4.52734C27.8398 4.35156 28.0488 4.26367 28.3066 4.26367C28.5684 4.26367 28.7793 4.35156 28.9395 4.52734C29.1035 4.69922 29.1855 4.96289 29.1855 5.31836V12.0859C29.1855 12.4414 29.1035 12.707 28.9395 12.8828C28.7754 13.0586 28.5645 13.1465 28.3066 13.1465C28.0449 13.1465 27.8359 13.0586 27.6797 12.8828C27.5234 12.7031 27.4453 12.4375 27.4453 12.0859V9.19727H23.6895V12.0859C23.6895 12.4414 23.6074 12.707 23.4434 12.8828C23.2793 13.0586 23.0684 13.1465 22.8105 13.1465C22.5488 13.1465 22.3398 13.0586 22.1836 12.8828C22.0273 12.7031 21.9492 12.4375 21.9492 12.0859V5.31836C21.9492 4.9668 22.0254 4.70312 22.1777 4.52734C22.334 4.35156 22.5449 4.26367 22.8105 4.26367C23.0723 4.26367 23.2832 4.35156 23.4434 4.52734C23.6074 4.69922 23.6895 4.96289 23.6895 5.31836ZM32.4199 13.3457L32.5664 12.9883L30.5977 8.03125C30.4766 7.74609 30.416 7.53906 30.416 7.41016C30.416 7.27344 30.4512 7.14648 30.5215 7.0293C30.5918 6.91211 30.6875 6.81836 30.8086 6.74805C30.9336 6.67773 31.0625 6.64258 31.1953 6.64258C31.4258 6.64258 31.5996 6.7168 31.7168 6.86523C31.834 7.00977 31.9375 7.21875 32.0273 7.49219L33.3809 11.4297L34.6641 7.76758C34.7656 7.4707 34.8574 7.23828 34.9395 7.07031C35.0215 6.90234 35.1074 6.78906 35.1973 6.73047C35.291 6.67188 35.4219 6.64258 35.5898 6.64258C35.7109 6.64258 35.8262 6.67578 35.9355 6.74219C36.0488 6.80469 36.1348 6.89062 36.1934 7C36.2559 7.10938 36.2871 7.22461 36.2871 7.3457C36.2715 7.41992 36.2461 7.52539 36.2109 7.66211C36.1758 7.79883 36.1328 7.9375 36.082 8.07812L33.9961 13.5391C33.8164 14.0195 33.6406 14.3965 33.4688 14.6699C33.2969 14.9434 33.0684 15.1523 32.7832 15.2969C32.502 15.4453 32.1211 15.5195 31.6406 15.5195C31.1719 15.5195 30.8203 15.4688 30.5859 15.3672C30.3516 15.2656 30.2344 15.0801 30.2344 14.8105C30.2344 14.627 30.2891 14.4844 30.3984 14.3828C30.5117 14.2852 30.6777 14.2363 30.8965 14.2363C30.9824 14.2363 31.0664 14.248 31.1484 14.2715C31.25 14.2949 31.3379 14.3066 31.4121 14.3066C31.5957 14.3066 31.7402 14.2793 31.8457 14.2246C31.9512 14.1699 32.0449 14.0742 32.127 13.9375C32.2129 13.8047 32.3105 13.6074 32.4199 13.3457ZM38.9238 7.53906V7.73242C39.2246 7.36133 39.5371 7.08984 39.8613 6.91797C40.1855 6.74219 40.5527 6.6543 40.9629 6.6543C41.4551 6.6543 41.9082 6.78125 42.3223 7.03516C42.7363 7.28906 43.0625 7.66016 43.3008 8.14844C43.543 8.63672 43.6641 9.21484 43.6641 9.88281C43.6641 10.375 43.5938 10.8281 43.4531 11.2422C43.3164 11.6523 43.127 11.998 42.8848 12.2793C42.6426 12.5566 42.3555 12.7715 42.0234 12.9238C41.6953 13.0723 41.3418 13.1465 40.9629 13.1465C40.5059 13.1465 40.1211 13.0547 39.8086 12.8711C39.5 12.6875 39.2051 12.418 38.9238 12.0625V14.4648C38.9238 15.168 38.668 15.5195 38.1562 15.5195C37.8555 15.5195 37.6562 15.4277 37.5586 15.2441C37.4609 15.0645 37.4121 14.8008 37.4121 14.4531V7.55078C37.4121 7.24609 37.4785 7.01953 37.6113 6.87109C37.7441 6.71875 37.9258 6.64258 38.1562 6.64258C38.3828 6.64258 38.5664 6.7207 38.707 6.87695C38.8516 7.0293 38.9238 7.25 38.9238 7.53906ZM42.0586 9.86523C42.0586 9.44336 41.9941 9.08203 41.8652 8.78125C41.7363 8.47656 41.5566 8.24414 41.3262 8.08398C41.0996 7.91992 40.8477 7.83789 40.5703 7.83789C40.1289 7.83789 39.7559 8.01172 39.4512 8.35938C39.1504 8.70703 39 9.21875 39 9.89453C39 10.5312 39.1504 11.0273 39.4512 11.3828C39.752 11.7344 40.125 11.9102 40.5703 11.9102C40.8359 11.9102 41.082 11.834 41.3086 11.6816C41.5352 11.5254 41.7168 11.293 41.8535 10.9844C41.9902 10.6758 42.0586 10.3027 42.0586 9.86523ZM49.4121 10.2871H46.2832C46.2871 10.6504 46.3594 10.9707 46.5 11.248C46.6445 11.5254 46.834 11.7344 47.0684 11.875C47.3066 12.0156 47.5684 12.0859 47.8535 12.0859C48.0449 12.0859 48.2188 12.0645 48.375 12.0215C48.5352 11.9746 48.6895 11.9043 48.8379 11.8105C48.9863 11.7129 49.123 11.6094 49.248 11.5C49.373 11.3906 49.5352 11.2422 49.7344 11.0547C49.8164 10.9844 49.9336 10.9492 50.0859 10.9492C50.25 10.9492 50.3828 10.9941 50.4844 11.084C50.5859 11.1738 50.6367 11.3008 50.6367 11.4648C50.6367 11.6094 50.5801 11.7793 50.4668 11.9746C50.3535 12.166 50.1816 12.3516 49.9512 12.5312C49.7246 12.707 49.4375 12.8535 49.0898 12.9707C48.7461 13.0879 48.3496 13.1465 47.9004 13.1465C46.873 13.1465 46.0742 12.8535 45.5039 12.2676C44.9336 11.6816 44.6484 10.8867 44.6484 9.88281C44.6484 9.41016 44.7188 8.97266 44.8594 8.57031C45 8.16406 45.2051 7.81641 45.4746 7.52734C45.7441 7.23828 46.0762 7.01758 46.4707 6.86523C46.8652 6.70898 47.3027 6.63086 47.7832 6.63086C48.4082 6.63086 48.9434 6.76367 49.3887 7.0293C49.8379 7.29102 50.1738 7.63086 50.3965 8.04883C50.6191 8.4668 50.7305 8.89258 50.7305 9.32617C50.7305 9.72852 50.6152 9.99023 50.3848 10.1113C50.1543 10.2285 49.8301 10.2871 49.4121 10.2871ZM46.2832 9.37891H49.1836C49.1445 8.83203 48.9961 8.42383 48.7383 8.1543C48.4844 7.88086 48.1484 7.74414 47.7305 7.74414C47.332 7.74414 47.0039 7.88281 46.7461 8.16016C46.4922 8.43359 46.3379 8.83984 46.2832 9.37891ZM53.6719 10.8379V12.1738C53.6719 12.498 53.5957 12.7422 53.4434 12.9062C53.291 13.0664 53.0977 13.1465 52.8633 13.1465C52.6328 13.1465 52.4434 13.0645 52.2949 12.9004C52.1465 12.7363 52.0723 12.4941 52.0723 12.1738V7.7207C52.0723 7.00195 52.332 6.64258 52.8516 6.64258C53.1172 6.64258 53.3086 6.72656 53.4258 6.89453C53.543 7.0625 53.6074 7.31055 53.6191 7.63867C53.8105 7.31055 54.0059 7.0625 54.2051 6.89453C54.4082 6.72656 54.6777 6.64258 55.0137 6.64258C55.3496 6.64258 55.6758 6.72656 55.9922 6.89453C56.3086 7.0625 56.4668 7.28516 56.4668 7.5625C56.4668 7.75781 56.3984 7.91992 56.2617 8.04883C56.1289 8.17383 55.9844 8.23633 55.8281 8.23633C55.7695 8.23633 55.627 8.20117 55.4004 8.13086C55.1777 8.05664 54.9805 8.01953 54.8086 8.01953C54.5742 8.01953 54.3828 8.08203 54.2344 8.20703C54.0859 8.32812 53.9707 8.50977 53.8887 8.75195C53.8066 8.99414 53.75 9.2832 53.7188 9.61914C53.6875 9.95117 53.6719 10.3574 53.6719 10.8379ZM62.1621 5.31836V11.5703H65.6895C65.9707 11.5703 66.1855 11.6387 66.334 11.7754C66.4863 11.9121 66.5625 12.084 66.5625 12.291C66.5625 12.502 66.4883 12.6738 66.3398 12.8066C66.1914 12.9355 65.9746 13 65.6895 13H61.4883C61.1094 13 60.8359 12.916 60.668 12.748C60.5039 12.5801 60.4219 12.3086 60.4219 11.9336V5.31836C60.4219 4.9668 60.5 4.70312 60.6562 4.52734C60.8164 4.35156 61.0254 4.26367 61.2832 4.26367C61.5449 4.26367 61.7559 4.35156 61.916 4.52734C62.0801 4.69922 62.1621 4.96289 62.1621 5.31836ZM69.1992 7.55078V12.1738C69.1992 12.4941 69.123 12.7363 68.9707 12.9004C68.8184 13.0645 68.625 13.1465 68.3906 13.1465C68.1562 13.1465 67.9648 13.0625 67.8164 12.8945C67.6719 12.7266 67.5996 12.4863 67.5996 12.1738V7.59766C67.5996 7.28125 67.6719 7.04297 67.8164 6.88281C67.9648 6.72266 68.1562 6.64258 68.3906 6.64258C68.625 6.64258 68.8184 6.72266 68.9707 6.88281C69.123 7.04297 69.1992 7.26562 69.1992 7.55078ZM68.4082 5.89844C68.1855 5.89844 67.9941 5.83008 67.834 5.69336C67.6777 5.55664 67.5996 5.36328 67.5996 5.11328C67.5996 4.88672 67.6797 4.70117 67.8398 4.55664C68.0039 4.4082 68.1934 4.33398 68.4082 4.33398C68.6152 4.33398 68.7988 4.40039 68.959 4.5332C69.1191 4.66602 69.1992 4.85938 69.1992 5.11328C69.1992 5.35938 69.1211 5.55273 68.9648 5.69336C68.8086 5.83008 68.623 5.89844 68.4082 5.89844ZM72.3105 7.52734V7.7207C72.5918 7.34961 72.8984 7.07812 73.2305 6.90625C73.5664 6.73047 73.9512 6.64258 74.3848 6.64258C74.8066 6.64258 75.1836 6.73438 75.5156 6.91797C75.8477 7.10156 76.0957 7.36133 76.2598 7.69727C76.3652 7.89258 76.4336 8.10352 76.4648 8.33008C76.4961 8.55664 76.5117 8.8457 76.5117 9.19727V12.1738C76.5117 12.4941 76.4375 12.7363 76.2891 12.9004C76.1445 13.0645 75.9551 13.1465 75.7207 13.1465C75.4824 13.1465 75.2891 13.0625 75.1406 12.8945C74.9922 12.7266 74.918 12.4863 74.918 12.1738V9.50781C74.918 8.98047 74.8438 8.57812 74.6953 8.30078C74.5508 8.01953 74.2598 7.87891 73.8223 7.87891C73.5371 7.87891 73.2773 7.96484 73.043 8.13672C72.8086 8.30469 72.6367 8.53711 72.5273 8.83398C72.4492 9.07227 72.4102 9.51758 72.4102 10.1699V12.1738C72.4102 12.498 72.334 12.7422 72.1816 12.9062C72.0332 13.0664 71.8398 13.1465 71.6016 13.1465C71.3711 13.1465 71.1816 13.0625 71.0332 12.8945C70.8848 12.7266 70.8105 12.4863 70.8105 12.1738V7.55078C70.8105 7.24609 70.877 7.01953 71.0098 6.87109C71.1426 6.71875 71.3242 6.64258 71.5547 6.64258C71.6953 6.64258 71.8223 6.67578 71.9355 6.74219C72.0488 6.80859 72.1387 6.9082 72.2051 7.04102C72.2754 7.17383 72.3105 7.33594 72.3105 7.52734ZM82.0957 12.4141L80.6836 10.0938L79.8164 10.9141V12.1855C79.8164 12.4941 79.7344 12.7324 79.5703 12.9004C79.4102 13.0645 79.2246 13.1465 79.0137 13.1465C78.7676 13.1465 78.5742 13.0645 78.4336 12.9004C78.293 12.7363 78.2227 12.4941 78.2227 12.1738V5.35352C78.2227 4.99805 78.291 4.72852 78.4277 4.54492C78.5645 4.35742 78.7598 4.26367 79.0137 4.26367C79.2598 4.26367 79.4551 4.34766 79.5996 4.51562C79.7441 4.68359 79.8164 4.93164 79.8164 5.25977V9.13867L81.6152 7.25195C81.8379 7.01758 82.0078 6.85742 82.125 6.77148C82.2422 6.68555 82.3848 6.64258 82.5527 6.64258C82.752 6.64258 82.918 6.70703 83.0508 6.83594C83.1836 6.96094 83.25 7.11914 83.25 7.31055C83.25 7.54492 83.0332 7.85742 82.5996 8.24805L81.75 9.02734L83.3906 11.6055C83.5117 11.7969 83.5977 11.9434 83.6484 12.0449C83.7031 12.1426 83.7305 12.2363 83.7305 12.3262C83.7305 12.5801 83.6602 12.7812 83.5195 12.9297C83.3828 13.0742 83.2012 13.1465 82.9746 13.1465C82.7793 13.1465 82.6289 13.0938 82.5234 12.9883C82.418 12.8828 82.2754 12.6914 82.0957 12.4141ZM89.8359 11.0547C89.8359 11.4961 89.7285 11.875 89.5137 12.1914C89.2988 12.5039 88.9805 12.7422 88.5586 12.9062C88.1406 13.0664 87.6309 13.1465 87.0293 13.1465C86.4551 13.1465 85.9629 13.0586 85.5527 12.8828C85.1426 12.707 84.8398 12.4883 84.6445 12.2266C84.4492 11.9609 84.3516 11.6953 84.3516 11.4297C84.3516 11.2539 84.4141 11.1035 84.5391 10.9785C84.6641 10.8535 84.8223 10.791 85.0137 10.791C85.1816 10.791 85.3105 10.832 85.4004 10.9141C85.4902 10.9961 85.5762 11.1113 85.6582 11.2598C85.8223 11.5449 86.0176 11.7578 86.2441 11.8984C86.4746 12.0391 86.7871 12.1094 87.1816 12.1094C87.502 12.1094 87.7637 12.0391 87.9668 11.8984C88.1738 11.7539 88.2773 11.5898 88.2773 11.4062C88.2773 11.125 88.1699 10.9199 87.9551 10.791C87.7441 10.6621 87.3945 10.5391 86.9062 10.4219C86.3555 10.2852 85.9062 10.1426 85.5586 9.99414C85.2148 9.8418 84.9395 9.64258 84.7324 9.39648C84.5254 9.15039 84.4219 8.84766 84.4219 8.48828C84.4219 8.16797 84.5176 7.86523 84.709 7.58008C84.9004 7.29492 85.1816 7.06836 85.5527 6.90039C85.9277 6.72852 86.3789 6.64258 86.9062 6.64258C87.3203 6.64258 87.6914 6.68555 88.0195 6.77148C88.3516 6.85742 88.627 6.97266 88.8457 7.11719C89.0684 7.26172 89.2363 7.42188 89.3496 7.59766C89.4668 7.77344 89.5254 7.94531 89.5254 8.11328C89.5254 8.29688 89.4629 8.44727 89.3379 8.56445C89.2168 8.68164 89.043 8.74023 88.8164 8.74023C88.6523 8.74023 88.5117 8.69336 88.3945 8.59961C88.2812 8.50586 88.1504 8.36523 88.002 8.17773C87.8809 8.02148 87.7383 7.89648 87.5742 7.80273C87.4102 7.70898 87.1875 7.66211 86.9062 7.66211C86.6172 7.66211 86.377 7.72461 86.1855 7.84961C85.9941 7.9707 85.8984 8.12305 85.8984 8.30664C85.8984 8.47461 85.9688 8.61328 86.1094 8.72266C86.25 8.82812 86.4395 8.91602 86.6777 8.98633C86.916 9.05664 87.2441 9.14258 87.6621 9.24414C88.1582 9.36523 88.5625 9.50977 88.875 9.67773C89.1914 9.8457 89.4297 10.0449 89.5898 10.2754C89.7539 10.502 89.8359 10.7617 89.8359 11.0547Z" fill="white"/>
</g>
<defs>
<filter id="filter0_d_676_2888" x="20.9492" y="4.26367" width="68.8867" height="11.7559" filterUnits="userSpaceOnUse" color-interpolation-filters="sRGB">
<feFlood flood-opacity="0" result="BackgroundImageFix"/>
<feColorMatrix in="SourceAlpha" type="matrix" values="0 0 0 0 0 0 0 0 0 0 0 0 0 0 0 0 0 0 127 0" result="hardAlpha"/>
<feOffset dx="-1" dy="0.5"/>
<feComposite in2="hardAlpha" operator="out"/>
<feColorMatrix type="matrix" values="0 0 0 0 0 0 0 0 0 0 0 0 0 0 0 0 0 0 0.25 0"/>
<feBlend mode="normal" in2="BackgroundImageFix" result="effect1_dropShadow_676_2888"/>
<feBlend mode="normal" in="SourceGraphic" in2="effect1_dropShadow_676_2888" result="shape"/>
</filter>
<linearGradient id="paint0_linear_676_2888" x1="72.2926" y1="18" x2="72.2926" y2="4.30081e-07" gradientUnits="userSpaceOnUse">
<stop stop-color="#7D2E2E"/>
<stop offset="0.9" stop-color="#E35454"/>
</linearGradient>
</defs>
</svg>
