<svg width="387" height="23" viewBox="0 0 387 23" fill="none" xmlns="http://www.w3.org/2000/svg">
<path d="M0.925781 22.3813V0.555176H9.50977C11.1699 0.555176 12.5811 0.872559 13.7432 1.50732C14.915 2.14209 15.8086 3.01611 16.4238 4.12939C17.0391 5.24268 17.3467 6.52197 17.3467 7.96729C17.3467 9.4126 17.0342 10.687 16.4092 11.7905C15.7842 12.894 14.8809 13.7583 13.6992 14.3833C12.5176 14.9985 11.0869 15.3062 9.40723 15.3062H5.52539V22.3813H0.925781ZM5.52539 11.6147H8.64551C9.9834 11.6147 10.9746 11.2778 11.6191 10.604C12.2734 9.92041 12.6006 9.0415 12.6006 7.96729C12.6006 6.87354 12.2734 5.99463 11.6191 5.33057C10.9648 4.6665 9.96875 4.33447 8.63086 4.33447H5.52539V11.6147ZM20.3496 22.3813V0.555176H24.9492V18.5728H34.3096V22.3813H20.3496ZM41.1504 22.3813H36.1992L43.7432 0.555176H49.6758L57.2051 22.3813H52.2686L50.6426 17.4009H42.7617L41.1504 22.3813ZM43.9336 13.7974H49.4707L46.79 5.53564H46.6143L43.9336 13.7974ZM58.5088 0.555176H63.6943L68.6602 9.95947H68.8799L73.8604 0.555176H79.0312L71.0625 14.6763V22.3813H66.4775V14.6763L58.5088 0.555176ZM81.5508 22.3813V0.555176H96.2578V4.36377H86.1504V9.49072H95.4814V13.2261H86.1504V18.5728H96.2871V22.3813H81.5508ZM99.9199 22.3813V0.555176H108.504C110.984 0.555176 112.908 1.20459 114.275 2.50342C115.652 3.80225 116.341 5.53076 116.341 7.68896C116.341 9.18311 116.009 10.4624 115.345 11.5269C114.681 12.5815 113.729 13.3726 112.488 13.8999L117.117 22.3813H112.02L107.889 14.647H104.52V22.3813H99.9199ZM104.52 10.9409H107.64C110.276 10.9409 111.595 9.85693 111.595 7.68896C111.595 6.60498 111.268 5.7749 110.613 5.19873C109.959 4.62256 108.963 4.33447 107.625 4.33447H104.52V10.9409ZM271.277 22.689C268.631 22.689 266.517 22.0835 264.935 20.8726C263.362 19.6616 262.542 17.8794 262.474 15.5259H266.941C267.02 16.6196 267.449 17.4448 268.23 18.0015C269.021 18.5483 270.018 18.8218 271.219 18.8218C272.391 18.8218 273.328 18.5728 274.031 18.0747C274.744 17.5767 275.101 16.9272 275.101 16.1265C275.101 15.394 274.778 14.8325 274.134 14.4419C273.489 14.0415 272.571 13.6997 271.38 13.4165L268.992 12.8306C267.156 12.3911 265.706 11.6929 264.642 10.7358C263.587 9.76904 263.06 8.47998 263.06 6.86865C263.06 5.55029 263.416 4.39795 264.129 3.41162C264.842 2.41553 265.818 1.64404 267.059 1.09717C268.309 0.540527 269.729 0.262207 271.321 0.262207C272.942 0.262207 274.358 0.540527 275.569 1.09717C276.78 1.65381 277.723 2.42529 278.396 3.41162C279.08 4.39795 279.432 5.53564 279.451 6.82471H274.998C274.92 5.9751 274.559 5.31104 273.914 4.83252C273.27 4.354 272.396 4.11475 271.292 4.11475C270.169 4.11475 269.305 4.34912 268.699 4.81787C268.094 5.27686 267.791 5.86279 267.791 6.57568C267.791 7.34717 268.128 7.93311 268.802 8.3335C269.476 8.72412 270.286 9.03174 271.233 9.25635L273.182 9.73975C274.451 10.0229 275.579 10.438 276.565 10.9849C277.552 11.522 278.328 12.2153 278.895 13.0649C279.461 13.9048 279.744 14.9302 279.744 16.1411C279.744 18.1431 278.997 19.7349 277.503 20.9165C276.009 22.0981 273.934 22.689 271.277 22.689ZM281.546 0.555176H286.731L291.697 9.95947H291.917L296.897 0.555176H302.068L294.1 14.6763V22.3813H289.515V14.6763L281.546 0.555176ZM312.674 22.689C310.027 22.689 307.913 22.0835 306.331 20.8726C304.759 19.6616 303.938 17.8794 303.87 15.5259H308.338C308.416 16.6196 308.846 17.4448 309.627 18.0015C310.418 18.5483 311.414 18.8218 312.615 18.8218C313.787 18.8218 314.725 18.5728 315.428 18.0747C316.141 17.5767 316.497 16.9272 316.497 16.1265C316.497 15.394 316.175 14.8325 315.53 14.4419C314.886 14.0415 313.968 13.6997 312.776 13.4165L310.389 12.8306C308.553 12.3911 307.103 11.6929 306.038 10.7358C304.983 9.76904 304.456 8.47998 304.456 6.86865C304.456 5.55029 304.812 4.39795 305.525 3.41162C306.238 2.41553 307.215 1.64404 308.455 1.09717C309.705 0.540527 311.126 0.262207 312.718 0.262207C314.339 0.262207 315.755 0.540527 316.966 1.09717C318.177 1.65381 319.119 2.42529 319.793 3.41162C320.477 4.39795 320.828 5.53564 320.848 6.82471H316.395C316.316 5.9751 315.955 5.31104 315.311 4.83252C314.666 4.354 313.792 4.11475 312.688 4.11475C311.565 4.11475 310.701 4.34912 310.096 4.81787C309.49 5.27686 309.188 5.86279 309.188 6.57568C309.188 7.34717 309.524 7.93311 310.198 8.3335C310.872 8.72412 311.683 9.03174 312.63 9.25635L314.578 9.73975C315.848 10.0229 316.976 10.438 317.962 10.9849C318.948 11.522 319.725 12.2153 320.291 13.0649C320.857 13.9048 321.141 14.9302 321.141 16.1411C321.141 18.1431 320.394 19.7349 318.899 20.9165C317.405 22.0981 315.33 22.689 312.674 22.689ZM323.411 4.36377V0.555176H341.326V4.36377H334.676V22.3813H330.076V4.36377H323.411ZM344.314 22.3813V0.555176H359.021V4.36377H348.914V9.49072H358.245V13.2261H348.914V18.5728H359.051V22.3813H344.314ZM362.684 0.555176H368.367L374.373 15.2183H374.622L380.643 0.555176H386.37V22.3813H381.844V8.17236H381.683L376.014 22.2788H372.952L367.342 8.14307H367.151V22.3813H362.684V0.555176Z" fill="#EBF9FF"/>
<path d="M118.802 4.36377V0.555176H136.717V4.36377H130.066V22.3813H125.467V4.36377H118.802ZM139.705 22.3813V0.555176H148.289C150.77 0.555176 152.693 1.20459 154.061 2.50342C155.438 3.80225 156.126 5.53076 156.126 7.68896C156.126 9.18311 155.794 10.4624 155.13 11.5269C154.466 12.5815 153.514 13.3726 152.273 13.8999L156.902 22.3813H151.805L147.674 14.647H144.305V22.3813H139.705ZM144.305 10.9409H147.425C150.062 10.9409 151.38 9.85693 151.38 7.68896C151.38 6.60498 151.053 5.7749 150.398 5.19873C149.744 4.62256 148.748 4.33447 147.41 4.33447H144.305V10.9409ZM163.172 22.3813H158.221L165.765 0.555176H171.697L179.227 22.3813H174.29L172.664 17.4009H164.783L163.172 22.3813ZM165.955 13.7974H171.492L168.812 5.53564H168.636L165.955 13.7974ZM191.604 22.6743C189.661 22.6743 187.923 22.2349 186.39 21.356C184.856 20.4771 183.646 19.2026 182.757 17.5327C181.878 15.8628 181.438 13.8462 181.438 11.4829C181.438 9.1001 181.883 7.07373 182.771 5.40381C183.67 3.73389 184.886 2.45947 186.419 1.58057C187.962 0.70166 189.69 0.262207 191.604 0.262207C193.294 0.262207 194.812 0.574707 196.16 1.19971C197.518 1.82471 198.626 2.72803 199.485 3.90967C200.345 5.09131 200.872 6.52197 201.067 8.20166H196.409C196.233 7.00049 195.721 6.05811 194.871 5.37451C194.021 4.68115 192.967 4.33447 191.707 4.33447C190.027 4.33447 188.675 4.95947 187.649 6.20947C186.624 7.44971 186.111 9.20752 186.111 11.4829C186.111 13.8071 186.624 15.5747 187.649 16.7856C188.685 17.9966 190.032 18.6021 191.692 18.6021C192.913 18.6021 193.948 18.2798 194.798 17.6353C195.657 16.9907 196.194 16.0874 196.409 14.9253H201.067C200.901 16.2632 200.423 17.5229 199.632 18.7046C198.851 19.8862 197.781 20.8433 196.424 21.5757C195.076 22.3081 193.47 22.6743 191.604 22.6743ZM204.393 22.3813V0.555176H208.992V10.1792H209.271L217.137 0.555176H222.659L214.573 10.3257L222.762 22.3813H217.225L211.263 13.4165L208.992 16.1851V22.3813H204.393ZM225.105 22.3813V0.555176H239.812V4.36377H229.705V9.49072H239.036V13.2261H229.705V18.5728H239.842V22.3813H225.105ZM243.475 22.3813V0.555176H252.059C254.539 0.555176 256.463 1.20459 257.83 2.50342C259.207 3.80225 259.896 5.53076 259.896 7.68896C259.896 9.18311 259.563 10.4624 258.899 11.5269C258.235 12.5815 257.283 13.3726 256.043 13.8999L260.672 22.3813H255.574L251.443 14.647H248.074V22.3813H243.475ZM248.074 10.9409H251.194C253.831 10.9409 255.149 9.85693 255.149 7.68896C255.149 6.60498 254.822 5.7749 254.168 5.19873C253.514 4.62256 252.518 4.33447 251.18 4.33447H248.074V10.9409Z" fill="#08A2FF"/>
</svg>
