<svg width="800" height="109" viewBox="0 0 800 109" fill="none" xmlns="http://www.w3.org/2000/svg">
<path d="M280.6 83.16C275.373 83.16 270.653 82.0933 266.44 79.96C262.28 77.7733 259 74.5467 256.6 70.28C254.2 66.0133 253 60.76 253 54.52C253 48.28 254.2 42.8933 256.6 38.36C259.053 33.8267 262.387 30.36 266.6 27.96C270.867 25.5067 275.72 24.28 281.16 24.28C287.453 24.28 292.28 25.16 295.64 26.92C299 28.68 300.68 31.2933 300.68 34.76C300.68 37.4267 299.96 39.64 298.52 41.4C297.08 43.1067 295.107 43.96 292.6 43.96C290.467 43.96 288.387 43.6933 286.36 43.16C284.387 42.5733 282.067 42.28 279.4 42.28C275.987 42.28 273.293 43.2667 271.32 45.24C269.347 47.2133 268.36 49.8 268.36 53C268.36 56.1467 269.347 58.7867 271.32 60.92C273.293 63 275.987 64.04 279.4 64.04C281.213 64.04 282.867 63.9067 284.36 63.64C285.907 63.32 287.4 63 288.84 62.68C290.333 62.36 291.933 62.2 293.64 62.2C296.467 62.2 298.547 63.1333 299.88 65C301.213 66.8133 301.88 69.08 301.88 71.8C301.88 74.52 300.893 76.7333 298.92 78.44C296.947 80.0933 294.333 81.2933 291.08 82.04C287.88 82.7867 284.387 83.16 280.6 83.16Z" fill="#FF8906"/>
<path d="M313.569 83C311.062 83 309.115 82.28 307.729 80.84C306.342 79.4 305.649 77.5867 305.649 75.4V49.16C305.649 46.8667 306.342 44.9733 307.729 43.48C309.115 41.9333 311.062 41.16 313.569 41.16C316.075 41.16 317.995 41.9333 319.329 43.48C320.662 44.9733 321.329 46.8133 321.329 49V50.68H322.849C323.062 47.8533 324.129 45.5333 326.049 43.72C327.969 41.9067 330.235 41 332.849 41C335.462 41 337.515 41.8 339.009 43.4C340.555 45 341.329 47.1333 341.329 49.8C341.329 52.3067 340.609 54.3867 339.169 56.04C337.729 57.6933 335.889 58.52 333.649 58.52C331.782 58.52 330.209 58.0933 328.929 57.24C327.702 56.3333 326.795 55.2933 326.209 54.12C324.502 53.9067 323.249 54.0933 322.449 54.68C321.702 55.2133 321.329 56.3067 321.329 57.96V75.4C321.329 77.5867 320.662 79.4 319.329 80.84C317.995 82.28 316.075 83 313.569 83Z" fill="#FF8906"/>
<path d="M341.891 62.2C341.891 57.9867 342.718 54.28 344.371 51.08C346.078 47.88 348.478 45.3733 351.571 43.56C354.718 41.7467 358.451 40.84 362.771 40.84C366.131 40.84 369.145 41.4533 371.811 42.68C374.531 43.9067 376.665 45.56 378.211 47.64C379.758 49.6667 380.531 51.9067 380.531 54.36C380.531 56.92 379.785 58.7333 378.291 59.8C376.798 60.8667 374.585 61.4 371.651 61.4H354.851C354.851 62.7867 355.385 63.9333 356.451 64.84C357.571 65.7467 359.438 66.2 362.051 66.2C363.385 66.2 364.611 66.0667 365.731 65.8C366.905 65.5333 368.078 65.2933 369.251 65.08C370.478 64.8133 371.838 64.68 373.331 64.68C375.465 64.68 377.225 65.4533 378.611 67C379.998 68.4933 380.691 70.5733 380.691 73.24C380.691 76.3867 379.065 78.84 375.811 80.6C372.611 82.36 368.398 83.24 363.171 83.24C359.491 83.24 356.025 82.52 352.771 81.08C349.571 79.64 346.958 77.3733 344.931 74.28C342.905 71.1333 341.891 67.1067 341.891 62.2ZM367.811 58.76C368.611 58.76 368.878 58.3867 368.611 57.64C368.398 56.8933 367.758 56.12 366.691 55.32C365.625 54.52 364.078 54.12 362.051 54.12C359.705 54.12 357.945 54.6267 356.771 55.64C355.651 56.6533 355.091 57.6933 355.091 58.76H367.811Z" fill="#FF8906"/>
<path d="M398.561 83C388.854 83 384.001 75.8533 384.001 61.56C384.001 55.3733 385.201 50.44 387.601 46.76C390.001 43.0267 393.601 41.16 398.401 41.16C401.014 41.16 403.121 41.6933 404.721 42.76C406.374 43.8267 407.654 45.2933 408.561 47.16C409.521 48.9733 410.214 51.08 410.641 53.48L410.881 53.4V29.16C410.881 26.9733 411.521 25.1333 412.801 23.64C414.134 22.0933 416.054 21.32 418.561 21.32C421.014 21.32 422.827 22.0933 424.001 23.64C425.227 25.1333 425.841 27.0267 425.841 29.32V65.32C425.841 67.1333 425.974 68.8133 426.241 70.36C426.561 71.8533 426.801 73.3467 426.961 74.84C427.121 76.8667 426.694 78.6267 425.681 80.12C424.721 81.56 422.987 82.4933 420.481 82.92C417.227 83.4533 414.801 82.8933 413.201 81.24C411.654 79.5867 410.881 77.1333 410.881 73.88V70.92H409.361C409.361 74.8133 408.374 77.8 406.401 79.88C404.481 81.96 401.867 83 398.561 83ZM397.361 60.84C397.361 62.4933 397.867 63.72 398.881 64.52C399.894 65.32 401.707 65.72 404.321 65.72C406.987 65.72 408.827 65.32 409.841 64.52C410.854 63.72 411.361 62.4933 411.361 60.84C411.361 59.1333 410.854 57.9067 409.841 57.16C408.881 56.36 407.067 55.96 404.401 55.96C401.734 55.96 399.894 56.36 398.881 57.16C397.867 57.9067 397.361 59.1333 397.361 60.84Z" fill="#FF8906"/>
<path d="M430.485 31.88C430.485 29.5867 431.178 27.7467 432.565 26.36C434.005 24.92 435.978 24.2 438.485 24.2C441.152 24.2 443.125 24.8933 444.405 26.28C445.738 27.6667 446.405 29.5067 446.405 31.8C446.405 34.04 445.738 35.8533 444.405 37.24C443.125 38.5733 441.152 39.24 438.485 39.24C435.872 39.24 433.872 38.5733 432.485 37.24C431.152 35.8533 430.485 34.0667 430.485 31.88ZM438.485 83C435.978 83 434.112 82.3067 432.885 80.92C431.658 79.5333 431.045 77.8 431.045 75.72V48.36C431.045 46.0667 431.658 44.2533 432.885 42.92C434.112 41.5867 435.978 40.92 438.485 40.92C440.992 40.92 442.858 41.5867 444.085 42.92C445.365 44.2533 446.005 46.0133 446.005 48.2V75.72C446.005 77.8 445.338 79.5333 444.005 80.92C442.725 82.3067 440.885 83 438.485 83Z" fill="#FF8906"/>
<path d="M471.134 83.48C466.868 83.48 463.161 82.2533 460.014 79.8C456.868 77.2933 454.441 73.88 452.734 69.56C451.028 65.1867 450.174 60.2533 450.174 54.76C450.174 49.64 450.921 45.16 452.414 41.32C453.961 37.4267 456.041 34.2 458.654 31.64C461.321 29.0267 464.388 27.08 467.854 25.8C471.374 24.4667 475.081 23.8 478.974 23.8C486.121 23.8 491.401 24.8133 494.814 26.84C498.281 28.8133 500.014 31.3733 500.014 34.52C500.014 36.9733 499.374 39.1333 498.094 41C496.868 42.8667 495.001 43.8 492.494 43.8C490.788 43.8 489.161 43.64 487.614 43.32C486.121 43 484.574 42.7067 482.974 42.44C481.428 42.12 479.694 41.96 477.774 41.96C473.561 41.96 470.521 43.16 468.654 45.56C466.841 47.96 465.934 50.9733 465.934 54.6C465.934 57.5333 466.521 59.9333 467.694 61.8C468.921 63.6667 470.521 65.0533 472.494 65.96C474.521 66.8133 476.761 67.24 479.214 67.24C481.241 67.24 483.134 66.7867 484.894 65.88C486.654 64.9733 487.774 63.2933 488.254 60.84H484.334C482.468 60.84 481.028 60.28 480.014 59.16C479.001 57.9867 478.494 56.4933 478.494 54.68C478.494 52.8667 479.001 51.4 480.014 50.28C481.028 49.16 482.468 48.6 484.334 48.6H493.934C497.401 48.6 499.828 49.5333 501.214 51.4C502.654 53.2133 503.374 55.9333 503.374 59.56V74.52C503.374 77.2933 502.628 79.4 501.134 80.84C499.641 82.28 497.668 83 495.214 83C492.601 83 490.548 82.28 489.054 80.84C487.561 79.4 486.814 77.2933 486.814 74.52V69.56H485.374C485.374 74.4133 484.148 77.96 481.694 80.2C479.241 82.3867 475.961 83.48 471.854 83.48H471.134Z" fill="#F25F4C"/>
<path d="M527.137 83.16C520.897 83.16 515.91 81.32 512.177 77.64C508.497 73.9067 506.657 68.6533 506.657 61.88C506.657 57.72 507.51 54.0667 509.217 50.92C510.924 47.7733 513.297 45.32 516.337 43.56C519.43 41.7467 523.03 40.84 527.137 40.84C531.724 40.84 535.537 41.7467 538.577 43.56C541.617 45.32 543.884 47.7733 545.377 50.92C546.924 54.0667 547.697 57.72 547.697 61.88C547.697 68.6533 545.99 73.9067 542.577 77.64C539.217 81.32 534.07 83.16 527.137 83.16ZM516.177 60.52C516.177 62.1733 517.004 63.3467 518.657 64.04C520.31 64.68 523.137 65 527.137 65C531.137 65 533.964 64.68 535.617 64.04C537.27 63.3467 538.097 62.1733 538.097 60.52C538.097 58.92 537.27 57.8 535.617 57.16C533.964 56.52 531.137 56.2 527.137 56.2C523.137 56.2 520.31 56.52 518.657 57.16C517.004 57.8 516.177 58.92 516.177 60.52Z" fill="#F25F4C"/>
</svg>
