<svg width="830" height="115" viewBox="0 0 830 115" fill="none" xmlns="http://www.w3.org/2000/svg">
<mask id="path-1-outside-1_13_5" maskUnits="userSpaceOnUse" x="266" y="24" width="299" height="67" fill="black">
<rect fill="white" x="266" y="24" width="299" height="67"/>
<path d="M295.6 87.84C290.373 87.84 285.653 86.7733 281.44 84.64C277.28 82.4533 274 79.2267 271.6 74.96C269.2 70.6933 268 65.44 268 59.2C268 52.96 269.2 47.5733 271.6 43.04C274.053 38.5067 277.387 35.04 281.6 32.64C285.867 30.1867 290.72 28.96 296.16 28.96C302.453 28.96 307.28 29.84 310.64 31.6C314 33.36 315.68 35.9733 315.68 39.44C315.68 42.1067 314.96 44.32 313.52 46.08C312.08 47.7867 310.107 48.64 307.6 48.64C305.467 48.64 303.387 48.3733 301.36 47.84C299.387 47.2533 297.067 46.96 294.4 46.96C290.987 46.96 288.293 47.9467 286.32 49.92C284.347 51.8933 283.36 54.48 283.36 57.68C283.36 60.8267 284.347 63.4667 286.32 65.6C288.293 67.68 290.987 68.72 294.4 68.72C296.213 68.72 297.867 68.5867 299.36 68.32C300.907 68 302.4 67.68 303.84 67.36C305.333 67.04 306.933 66.88 308.64 66.88C311.467 66.88 313.547 67.8133 314.88 69.68C316.213 71.4933 316.88 73.76 316.88 76.48C316.88 79.2 315.893 81.4133 313.92 83.12C311.947 84.7733 309.333 85.9733 306.08 86.72C302.88 87.4667 299.387 87.84 295.6 87.84Z"/>
<path d="M328.569 87.68C326.062 87.68 324.115 86.96 322.729 85.52C321.342 84.08 320.649 82.2667 320.649 80.08V53.84C320.649 51.5467 321.342 49.6533 322.729 48.16C324.115 46.6133 326.062 45.84 328.569 45.84C331.075 45.84 332.995 46.6133 334.329 48.16C335.662 49.6533 336.329 51.4933 336.329 53.68V55.36H337.849C338.062 52.5333 339.129 50.2133 341.049 48.4C342.969 46.5867 345.235 45.68 347.849 45.68C350.462 45.68 352.515 46.48 354.009 48.08C355.555 49.68 356.329 51.8133 356.329 54.48C356.329 56.9867 355.609 59.0667 354.169 60.72C352.729 62.3733 350.889 63.2 348.649 63.2C346.782 63.2 345.209 62.7733 343.929 61.92C342.702 61.0133 341.795 59.9733 341.209 58.8C339.502 58.5867 338.249 58.7733 337.449 59.36C336.702 59.8933 336.329 60.9867 336.329 62.64V80.08C336.329 82.2667 335.662 84.08 334.329 85.52C332.995 86.96 331.075 87.68 328.569 87.68Z"/>
<path d="M356.891 66.88C356.891 62.6667 357.718 58.96 359.371 55.76C361.078 52.56 363.478 50.0533 366.571 48.24C369.718 46.4267 373.451 45.52 377.771 45.52C381.131 45.52 384.145 46.1333 386.811 47.36C389.531 48.5867 391.665 50.24 393.211 52.32C394.758 54.3467 395.531 56.5867 395.531 59.04C395.531 61.6 394.785 63.4133 393.291 64.48C391.798 65.5467 389.585 66.08 386.651 66.08H369.851C369.851 67.4667 370.385 68.6133 371.451 69.52C372.571 70.4267 374.438 70.88 377.051 70.88C378.385 70.88 379.611 70.7467 380.731 70.48C381.905 70.2133 383.078 69.9733 384.251 69.76C385.478 69.4933 386.838 69.36 388.331 69.36C390.465 69.36 392.225 70.1333 393.611 71.68C394.998 73.1733 395.691 75.2533 395.691 77.92C395.691 81.0667 394.065 83.52 390.811 85.28C387.611 87.04 383.398 87.92 378.171 87.92C374.491 87.92 371.025 87.2 367.771 85.76C364.571 84.32 361.958 82.0533 359.931 78.96C357.905 75.8133 356.891 71.7867 356.891 66.88ZM382.811 63.44C383.611 63.44 383.878 63.0667 383.611 62.32C383.398 61.5733 382.758 60.8 381.691 60C380.625 59.2 379.078 58.8 377.051 58.8C374.705 58.8 372.945 59.3067 371.771 60.32C370.651 61.3333 370.091 62.3733 370.091 63.44H382.811Z"/>
<path d="M413.561 87.68C403.854 87.68 399.001 80.5333 399.001 66.24C399.001 60.0533 400.201 55.12 402.601 51.44C405.001 47.7067 408.601 45.84 413.401 45.84C416.014 45.84 418.121 46.3733 419.721 47.44C421.374 48.5067 422.654 49.9733 423.561 51.84C424.521 53.6533 425.214 55.76 425.641 58.16L425.881 58.08V33.84C425.881 31.6533 426.521 29.8133 427.801 28.32C429.134 26.7733 431.054 26 433.561 26C436.014 26 437.827 26.7733 439.001 28.32C440.227 29.8133 440.841 31.7067 440.841 34V70C440.841 71.8133 440.974 73.4933 441.241 75.04C441.561 76.5333 441.801 78.0267 441.961 79.52C442.121 81.5467 441.694 83.3067 440.681 84.8C439.721 86.24 437.987 87.1733 435.481 87.6C432.227 88.1333 429.801 87.5733 428.201 85.92C426.654 84.2667 425.881 81.8133 425.881 78.56V75.6H424.361C424.361 79.4933 423.374 82.48 421.401 84.56C419.481 86.64 416.867 87.68 413.561 87.68ZM412.361 65.52C412.361 67.1733 412.867 68.4 413.881 69.2C414.894 70 416.707 70.4 419.321 70.4C421.987 70.4 423.827 70 424.841 69.2C425.854 68.4 426.361 67.1733 426.361 65.52C426.361 63.8133 425.854 62.5867 424.841 61.84C423.881 61.04 422.067 60.64 419.401 60.64C416.734 60.64 414.894 61.04 413.881 61.84C412.867 62.5867 412.361 63.8133 412.361 65.52Z"/>
<path d="M445.485 36.56C445.485 34.2667 446.178 32.4267 447.565 31.04C449.005 29.6 450.978 28.88 453.485 28.88C456.152 28.88 458.125 29.5733 459.405 30.96C460.738 32.3467 461.405 34.1867 461.405 36.48C461.405 38.72 460.738 40.5333 459.405 41.92C458.125 43.2533 456.152 43.92 453.485 43.92C450.872 43.92 448.872 43.2533 447.485 41.92C446.152 40.5333 445.485 38.7467 445.485 36.56ZM453.485 87.68C450.978 87.68 449.112 86.9867 447.885 85.6C446.658 84.2133 446.045 82.48 446.045 80.4V53.04C446.045 50.7467 446.658 48.9333 447.885 47.6C449.112 46.2667 450.978 45.6 453.485 45.6C455.992 45.6 457.858 46.2667 459.085 47.6C460.365 48.9333 461.005 50.6933 461.005 52.88V80.4C461.005 82.48 460.338 84.2133 459.005 85.6C457.725 86.9867 455.885 87.68 453.485 87.68Z"/>
<path d="M486.134 88.16C481.868 88.16 478.161 86.9333 475.014 84.48C471.868 81.9733 469.441 78.56 467.734 74.24C466.028 69.8667 465.174 64.9333 465.174 59.44C465.174 54.32 465.921 49.84 467.414 46C468.961 42.1067 471.041 38.88 473.654 36.32C476.321 33.7067 479.388 31.76 482.854 30.48C486.374 29.1467 490.081 28.48 493.974 28.48C501.121 28.48 506.401 29.4933 509.814 31.52C513.281 33.4933 515.014 36.0533 515.014 39.2C515.014 41.6533 514.374 43.8133 513.094 45.68C511.868 47.5467 510.001 48.48 507.494 48.48C505.788 48.48 504.161 48.32 502.614 48C501.121 47.68 499.574 47.3867 497.974 47.12C496.428 46.8 494.694 46.64 492.774 46.64C488.561 46.64 485.521 47.84 483.654 50.24C481.841 52.64 480.934 55.6533 480.934 59.28C480.934 62.2133 481.521 64.6133 482.694 66.48C483.921 68.3467 485.521 69.7333 487.494 70.64C489.521 71.4933 491.761 71.92 494.214 71.92C496.241 71.92 498.134 71.4667 499.894 70.56C501.654 69.6533 502.774 67.9733 503.254 65.52H499.334C497.468 65.52 496.028 64.96 495.014 63.84C494.001 62.6667 493.494 61.1733 493.494 59.36C493.494 57.5467 494.001 56.08 495.014 54.96C496.028 53.84 497.468 53.28 499.334 53.28H508.934C512.401 53.28 514.828 54.2133 516.214 56.08C517.654 57.8933 518.374 60.6133 518.374 64.24V79.2C518.374 81.9733 517.628 84.08 516.134 85.52C514.641 86.96 512.668 87.68 510.214 87.68C507.601 87.68 505.548 86.96 504.054 85.52C502.561 84.08 501.814 81.9733 501.814 79.2V74.24H500.374C500.374 79.0933 499.148 82.64 496.694 84.88C494.241 87.0667 490.961 88.16 486.854 88.16H486.134Z"/>
<path d="M542.137 87.84C535.897 87.84 530.91 86 527.177 82.32C523.497 78.5867 521.657 73.3333 521.657 66.56C521.657 62.4 522.51 58.7467 524.217 55.6C525.924 52.4533 528.297 50 531.337 48.24C534.43 46.4267 538.03 45.52 542.137 45.52C546.724 45.52 550.537 46.4267 553.577 48.24C556.617 50 558.884 52.4533 560.377 55.6C561.924 58.7467 562.697 62.4 562.697 66.56C562.697 73.3333 560.99 78.5867 557.577 82.32C554.217 86 549.07 87.84 542.137 87.84ZM531.177 65.2C531.177 66.8533 532.004 68.0267 533.657 68.72C535.31 69.36 538.137 69.68 542.137 69.68C546.137 69.68 548.964 69.36 550.617 68.72C552.27 68.0267 553.097 66.8533 553.097 65.2C553.097 63.6 552.27 62.48 550.617 61.84C548.964 61.2 546.137 60.88 542.137 60.88C538.137 60.88 535.31 61.2 533.657 61.84C532.004 62.48 531.177 63.6 531.177 65.2Z"/>
</mask>
<path d="M295.6 87.84C290.373 87.84 285.653 86.7733 281.44 84.64C277.28 82.4533 274 79.2267 271.6 74.96C269.2 70.6933 268 65.44 268 59.2C268 52.96 269.2 47.5733 271.6 43.04C274.053 38.5067 277.387 35.04 281.6 32.64C285.867 30.1867 290.72 28.96 296.16 28.96C302.453 28.96 307.28 29.84 310.64 31.6C314 33.36 315.68 35.9733 315.68 39.44C315.68 42.1067 314.96 44.32 313.52 46.08C312.08 47.7867 310.107 48.64 307.6 48.64C305.467 48.64 303.387 48.3733 301.36 47.84C299.387 47.2533 297.067 46.96 294.4 46.96C290.987 46.96 288.293 47.9467 286.32 49.92C284.347 51.8933 283.36 54.48 283.36 57.68C283.36 60.8267 284.347 63.4667 286.32 65.6C288.293 67.68 290.987 68.72 294.4 68.72C296.213 68.72 297.867 68.5867 299.36 68.32C300.907 68 302.4 67.68 303.84 67.36C305.333 67.04 306.933 66.88 308.64 66.88C311.467 66.88 313.547 67.8133 314.88 69.68C316.213 71.4933 316.88 73.76 316.88 76.48C316.88 79.2 315.893 81.4133 313.92 83.12C311.947 84.7733 309.333 85.9733 306.08 86.72C302.88 87.4667 299.387 87.84 295.6 87.84Z" fill="#232946"/>
<path d="M328.569 87.68C326.062 87.68 324.115 86.96 322.729 85.52C321.342 84.08 320.649 82.2667 320.649 80.08V53.84C320.649 51.5467 321.342 49.6533 322.729 48.16C324.115 46.6133 326.062 45.84 328.569 45.84C331.075 45.84 332.995 46.6133 334.329 48.16C335.662 49.6533 336.329 51.4933 336.329 53.68V55.36H337.849C338.062 52.5333 339.129 50.2133 341.049 48.4C342.969 46.5867 345.235 45.68 347.849 45.68C350.462 45.68 352.515 46.48 354.009 48.08C355.555 49.68 356.329 51.8133 356.329 54.48C356.329 56.9867 355.609 59.0667 354.169 60.72C352.729 62.3733 350.889 63.2 348.649 63.2C346.782 63.2 345.209 62.7733 343.929 61.92C342.702 61.0133 341.795 59.9733 341.209 58.8C339.502 58.5867 338.249 58.7733 337.449 59.36C336.702 59.8933 336.329 60.9867 336.329 62.64V80.08C336.329 82.2667 335.662 84.08 334.329 85.52C332.995 86.96 331.075 87.68 328.569 87.68Z" fill="#232946"/>
<path d="M356.891 66.88C356.891 62.6667 357.718 58.96 359.371 55.76C361.078 52.56 363.478 50.0533 366.571 48.24C369.718 46.4267 373.451 45.52 377.771 45.52C381.131 45.52 384.145 46.1333 386.811 47.36C389.531 48.5867 391.665 50.24 393.211 52.32C394.758 54.3467 395.531 56.5867 395.531 59.04C395.531 61.6 394.785 63.4133 393.291 64.48C391.798 65.5467 389.585 66.08 386.651 66.08H369.851C369.851 67.4667 370.385 68.6133 371.451 69.52C372.571 70.4267 374.438 70.88 377.051 70.88C378.385 70.88 379.611 70.7467 380.731 70.48C381.905 70.2133 383.078 69.9733 384.251 69.76C385.478 69.4933 386.838 69.36 388.331 69.36C390.465 69.36 392.225 70.1333 393.611 71.68C394.998 73.1733 395.691 75.2533 395.691 77.92C395.691 81.0667 394.065 83.52 390.811 85.28C387.611 87.04 383.398 87.92 378.171 87.92C374.491 87.92 371.025 87.2 367.771 85.76C364.571 84.32 361.958 82.0533 359.931 78.96C357.905 75.8133 356.891 71.7867 356.891 66.88ZM382.811 63.44C383.611 63.44 383.878 63.0667 383.611 62.32C383.398 61.5733 382.758 60.8 381.691 60C380.625 59.2 379.078 58.8 377.051 58.8C374.705 58.8 372.945 59.3067 371.771 60.32C370.651 61.3333 370.091 62.3733 370.091 63.44H382.811Z" fill="#232946"/>
<path d="M413.561 87.68C403.854 87.68 399.001 80.5333 399.001 66.24C399.001 60.0533 400.201 55.12 402.601 51.44C405.001 47.7067 408.601 45.84 413.401 45.84C416.014 45.84 418.121 46.3733 419.721 47.44C421.374 48.5067 422.654 49.9733 423.561 51.84C424.521 53.6533 425.214 55.76 425.641 58.16L425.881 58.08V33.84C425.881 31.6533 426.521 29.8133 427.801 28.32C429.134 26.7733 431.054 26 433.561 26C436.014 26 437.827 26.7733 439.001 28.32C440.227 29.8133 440.841 31.7067 440.841 34V70C440.841 71.8133 440.974 73.4933 441.241 75.04C441.561 76.5333 441.801 78.0267 441.961 79.52C442.121 81.5467 441.694 83.3067 440.681 84.8C439.721 86.24 437.987 87.1733 435.481 87.6C432.227 88.1333 429.801 87.5733 428.201 85.92C426.654 84.2667 425.881 81.8133 425.881 78.56V75.6H424.361C424.361 79.4933 423.374 82.48 421.401 84.56C419.481 86.64 416.867 87.68 413.561 87.68ZM412.361 65.52C412.361 67.1733 412.867 68.4 413.881 69.2C414.894 70 416.707 70.4 419.321 70.4C421.987 70.4 423.827 70 424.841 69.2C425.854 68.4 426.361 67.1733 426.361 65.52C426.361 63.8133 425.854 62.5867 424.841 61.84C423.881 61.04 422.067 60.64 419.401 60.64C416.734 60.64 414.894 61.04 413.881 61.84C412.867 62.5867 412.361 63.8133 412.361 65.52Z" fill="#232946"/>
<path d="M445.485 36.56C445.485 34.2667 446.178 32.4267 447.565 31.04C449.005 29.6 450.978 28.88 453.485 28.88C456.152 28.88 458.125 29.5733 459.405 30.96C460.738 32.3467 461.405 34.1867 461.405 36.48C461.405 38.72 460.738 40.5333 459.405 41.92C458.125 43.2533 456.152 43.92 453.485 43.92C450.872 43.92 448.872 43.2533 447.485 41.92C446.152 40.5333 445.485 38.7467 445.485 36.56ZM453.485 87.68C450.978 87.68 449.112 86.9867 447.885 85.6C446.658 84.2133 446.045 82.48 446.045 80.4V53.04C446.045 50.7467 446.658 48.9333 447.885 47.6C449.112 46.2667 450.978 45.6 453.485 45.6C455.992 45.6 457.858 46.2667 459.085 47.6C460.365 48.9333 461.005 50.6933 461.005 52.88V80.4C461.005 82.48 460.338 84.2133 459.005 85.6C457.725 86.9867 455.885 87.68 453.485 87.68Z" fill="#232946"/>
<path d="M486.134 88.16C481.868 88.16 478.161 86.9333 475.014 84.48C471.868 81.9733 469.441 78.56 467.734 74.24C466.028 69.8667 465.174 64.9333 465.174 59.44C465.174 54.32 465.921 49.84 467.414 46C468.961 42.1067 471.041 38.88 473.654 36.32C476.321 33.7067 479.388 31.76 482.854 30.48C486.374 29.1467 490.081 28.48 493.974 28.48C501.121 28.48 506.401 29.4933 509.814 31.52C513.281 33.4933 515.014 36.0533 515.014 39.2C515.014 41.6533 514.374 43.8133 513.094 45.68C511.868 47.5467 510.001 48.48 507.494 48.48C505.788 48.48 504.161 48.32 502.614 48C501.121 47.68 499.574 47.3867 497.974 47.12C496.428 46.8 494.694 46.64 492.774 46.64C488.561 46.64 485.521 47.84 483.654 50.24C481.841 52.64 480.934 55.6533 480.934 59.28C480.934 62.2133 481.521 64.6133 482.694 66.48C483.921 68.3467 485.521 69.7333 487.494 70.64C489.521 71.4933 491.761 71.92 494.214 71.92C496.241 71.92 498.134 71.4667 499.894 70.56C501.654 69.6533 502.774 67.9733 503.254 65.52H499.334C497.468 65.52 496.028 64.96 495.014 63.84C494.001 62.6667 493.494 61.1733 493.494 59.36C493.494 57.5467 494.001 56.08 495.014 54.96C496.028 53.84 497.468 53.28 499.334 53.28H508.934C512.401 53.28 514.828 54.2133 516.214 56.08C517.654 57.8933 518.374 60.6133 518.374 64.24V79.2C518.374 81.9733 517.628 84.08 516.134 85.52C514.641 86.96 512.668 87.68 510.214 87.68C507.601 87.68 505.548 86.96 504.054 85.52C502.561 84.08 501.814 81.9733 501.814 79.2V74.24H500.374C500.374 79.0933 499.148 82.64 496.694 84.88C494.241 87.0667 490.961 88.16 486.854 88.16H486.134Z" fill="#EEBBC3"/>
<path d="M542.137 87.84C535.897 87.84 530.91 86 527.177 82.32C523.497 78.5867 521.657 73.3333 521.657 66.56C521.657 62.4 522.51 58.7467 524.217 55.6C525.924 52.4533 528.297 50 531.337 48.24C534.43 46.4267 538.03 45.52 542.137 45.52C546.724 45.52 550.537 46.4267 553.577 48.24C556.617 50 558.884 52.4533 560.377 55.6C561.924 58.7467 562.697 62.4 562.697 66.56C562.697 73.3333 560.99 78.5867 557.577 82.32C554.217 86 549.07 87.84 542.137 87.84ZM531.177 65.2C531.177 66.8533 532.004 68.0267 533.657 68.72C535.31 69.36 538.137 69.68 542.137 69.68C546.137 69.68 548.964 69.36 550.617 68.72C552.27 68.0267 553.097 66.8533 553.097 65.2C553.097 63.6 552.27 62.48 550.617 61.84C548.964 61.2 546.137 60.88 542.137 60.88C538.137 60.88 535.31 61.2 533.657 61.84C532.004 62.48 531.177 63.6 531.177 65.2Z" fill="#EEBBC3"/>
<path d="M295.6 87.84C290.373 87.84 285.653 86.7733 281.44 84.64C277.28 82.4533 274 79.2267 271.6 74.96C269.2 70.6933 268 65.44 268 59.2C268 52.96 269.2 47.5733 271.6 43.04C274.053 38.5067 277.387 35.04 281.6 32.64C285.867 30.1867 290.72 28.96 296.16 28.96C302.453 28.96 307.28 29.84 310.64 31.6C314 33.36 315.68 35.9733 315.68 39.44C315.68 42.1067 314.96 44.32 313.52 46.08C312.08 47.7867 310.107 48.64 307.6 48.64C305.467 48.64 303.387 48.3733 301.36 47.84C299.387 47.2533 297.067 46.96 294.4 46.96C290.987 46.96 288.293 47.9467 286.32 49.92C284.347 51.8933 283.36 54.48 283.36 57.68C283.36 60.8267 284.347 63.4667 286.32 65.6C288.293 67.68 290.987 68.72 294.4 68.72C296.213 68.72 297.867 68.5867 299.36 68.32C300.907 68 302.4 67.68 303.84 67.36C305.333 67.04 306.933 66.88 308.64 66.88C311.467 66.88 313.547 67.8133 314.88 69.68C316.213 71.4933 316.88 73.76 316.88 76.48C316.88 79.2 315.893 81.4133 313.92 83.12C311.947 84.7733 309.333 85.9733 306.08 86.72C302.88 87.4667 299.387 87.84 295.6 87.84Z" stroke="#FFFFFE" stroke-width="4" mask="url(#path-1-outside-1_13_5)"/>
<path d="M328.569 87.68C326.062 87.68 324.115 86.96 322.729 85.52C321.342 84.08 320.649 82.2667 320.649 80.08V53.84C320.649 51.5467 321.342 49.6533 322.729 48.16C324.115 46.6133 326.062 45.84 328.569 45.84C331.075 45.84 332.995 46.6133 334.329 48.16C335.662 49.6533 336.329 51.4933 336.329 53.68V55.36H337.849C338.062 52.5333 339.129 50.2133 341.049 48.4C342.969 46.5867 345.235 45.68 347.849 45.68C350.462 45.68 352.515 46.48 354.009 48.08C355.555 49.68 356.329 51.8133 356.329 54.48C356.329 56.9867 355.609 59.0667 354.169 60.72C352.729 62.3733 350.889 63.2 348.649 63.2C346.782 63.2 345.209 62.7733 343.929 61.92C342.702 61.0133 341.795 59.9733 341.209 58.8C339.502 58.5867 338.249 58.7733 337.449 59.36C336.702 59.8933 336.329 60.9867 336.329 62.64V80.08C336.329 82.2667 335.662 84.08 334.329 85.52C332.995 86.96 331.075 87.68 328.569 87.68Z" stroke="#FFFFFE" stroke-width="4" mask="url(#path-1-outside-1_13_5)"/>
<path d="M356.891 66.88C356.891 62.6667 357.718 58.96 359.371 55.76C361.078 52.56 363.478 50.0533 366.571 48.24C369.718 46.4267 373.451 45.52 377.771 45.52C381.131 45.52 384.145 46.1333 386.811 47.36C389.531 48.5867 391.665 50.24 393.211 52.32C394.758 54.3467 395.531 56.5867 395.531 59.04C395.531 61.6 394.785 63.4133 393.291 64.48C391.798 65.5467 389.585 66.08 386.651 66.08H369.851C369.851 67.4667 370.385 68.6133 371.451 69.52C372.571 70.4267 374.438 70.88 377.051 70.88C378.385 70.88 379.611 70.7467 380.731 70.48C381.905 70.2133 383.078 69.9733 384.251 69.76C385.478 69.4933 386.838 69.36 388.331 69.36C390.465 69.36 392.225 70.1333 393.611 71.68C394.998 73.1733 395.691 75.2533 395.691 77.92C395.691 81.0667 394.065 83.52 390.811 85.28C387.611 87.04 383.398 87.92 378.171 87.92C374.491 87.92 371.025 87.2 367.771 85.76C364.571 84.32 361.958 82.0533 359.931 78.96C357.905 75.8133 356.891 71.7867 356.891 66.88ZM382.811 63.44C383.611 63.44 383.878 63.0667 383.611 62.32C383.398 61.5733 382.758 60.8 381.691 60C380.625 59.2 379.078 58.8 377.051 58.8C374.705 58.8 372.945 59.3067 371.771 60.32C370.651 61.3333 370.091 62.3733 370.091 63.44H382.811Z" stroke="#FFFFFE" stroke-width="4" mask="url(#path-1-outside-1_13_5)"/>
<path d="M413.561 87.68C403.854 87.68 399.001 80.5333 399.001 66.24C399.001 60.0533 400.201 55.12 402.601 51.44C405.001 47.7067 408.601 45.84 413.401 45.84C416.014 45.84 418.121 46.3733 419.721 47.44C421.374 48.5067 422.654 49.9733 423.561 51.84C424.521 53.6533 425.214 55.76 425.641 58.16L425.881 58.08V33.84C425.881 31.6533 426.521 29.8133 427.801 28.32C429.134 26.7733 431.054 26 433.561 26C436.014 26 437.827 26.7733 439.001 28.32C440.227 29.8133 440.841 31.7067 440.841 34V70C440.841 71.8133 440.974 73.4933 441.241 75.04C441.561 76.5333 441.801 78.0267 441.961 79.52C442.121 81.5467 441.694 83.3067 440.681 84.8C439.721 86.24 437.987 87.1733 435.481 87.6C432.227 88.1333 429.801 87.5733 428.201 85.92C426.654 84.2667 425.881 81.8133 425.881 78.56V75.6H424.361C424.361 79.4933 423.374 82.48 421.401 84.56C419.481 86.64 416.867 87.68 413.561 87.68ZM412.361 65.52C412.361 67.1733 412.867 68.4 413.881 69.2C414.894 70 416.707 70.4 419.321 70.4C421.987 70.4 423.827 70 424.841 69.2C425.854 68.4 426.361 67.1733 426.361 65.52C426.361 63.8133 425.854 62.5867 424.841 61.84C423.881 61.04 422.067 60.64 419.401 60.64C416.734 60.64 414.894 61.04 413.881 61.84C412.867 62.5867 412.361 63.8133 412.361 65.52Z" stroke="#FFFFFE" stroke-width="4" mask="url(#path-1-outside-1_13_5)"/>
<path d="M445.485 36.56C445.485 34.2667 446.178 32.4267 447.565 31.04C449.005 29.6 450.978 28.88 453.485 28.88C456.152 28.88 458.125 29.5733 459.405 30.96C460.738 32.3467 461.405 34.1867 461.405 36.48C461.405 38.72 460.738 40.5333 459.405 41.92C458.125 43.2533 456.152 43.92 453.485 43.92C450.872 43.92 448.872 43.2533 447.485 41.92C446.152 40.5333 445.485 38.7467 445.485 36.56ZM453.485 87.68C450.978 87.68 449.112 86.9867 447.885 85.6C446.658 84.2133 446.045 82.48 446.045 80.4V53.04C446.045 50.7467 446.658 48.9333 447.885 47.6C449.112 46.2667 450.978 45.6 453.485 45.6C455.992 45.6 457.858 46.2667 459.085 47.6C460.365 48.9333 461.005 50.6933 461.005 52.88V80.4C461.005 82.48 460.338 84.2133 459.005 85.6C457.725 86.9867 455.885 87.68 453.485 87.68Z" stroke="#FFFFFE" stroke-width="4" mask="url(#path-1-outside-1_13_5)"/>
<path d="M486.134 88.16C481.868 88.16 478.161 86.9333 475.014 84.48C471.868 81.9733 469.441 78.56 467.734 74.24C466.028 69.8667 465.174 64.9333 465.174 59.44C465.174 54.32 465.921 49.84 467.414 46C468.961 42.1067 471.041 38.88 473.654 36.32C476.321 33.7067 479.388 31.76 482.854 30.48C486.374 29.1467 490.081 28.48 493.974 28.48C501.121 28.48 506.401 29.4933 509.814 31.52C513.281 33.4933 515.014 36.0533 515.014 39.2C515.014 41.6533 514.374 43.8133 513.094 45.68C511.868 47.5467 510.001 48.48 507.494 48.48C505.788 48.48 504.161 48.32 502.614 48C501.121 47.68 499.574 47.3867 497.974 47.12C496.428 46.8 494.694 46.64 492.774 46.64C488.561 46.64 485.521 47.84 483.654 50.24C481.841 52.64 480.934 55.6533 480.934 59.28C480.934 62.2133 481.521 64.6133 482.694 66.48C483.921 68.3467 485.521 69.7333 487.494 70.64C489.521 71.4933 491.761 71.92 494.214 71.92C496.241 71.92 498.134 71.4667 499.894 70.56C501.654 69.6533 502.774 67.9733 503.254 65.52H499.334C497.468 65.52 496.028 64.96 495.014 63.84C494.001 62.6667 493.494 61.1733 493.494 59.36C493.494 57.5467 494.001 56.08 495.014 54.96C496.028 53.84 497.468 53.28 499.334 53.28H508.934C512.401 53.28 514.828 54.2133 516.214 56.08C517.654 57.8933 518.374 60.6133 518.374 64.24V79.2C518.374 81.9733 517.628 84.08 516.134 85.52C514.641 86.96 512.668 87.68 510.214 87.68C507.601 87.68 505.548 86.96 504.054 85.52C502.561 84.08 501.814 81.9733 501.814 79.2V74.24H500.374C500.374 79.0933 499.148 82.64 496.694 84.88C494.241 87.0667 490.961 88.16 486.854 88.16H486.134Z" stroke="#FFFFFE" stroke-width="4" mask="url(#path-1-outside-1_13_5)"/>
<path d="M542.137 87.84C535.897 87.84 530.91 86 527.177 82.32C523.497 78.5867 521.657 73.3333 521.657 66.56C521.657 62.4 522.51 58.7467 524.217 55.6C525.924 52.4533 528.297 50 531.337 48.24C534.43 46.4267 538.03 45.52 542.137 45.52C546.724 45.52 550.537 46.4267 553.577 48.24C556.617 50 558.884 52.4533 560.377 55.6C561.924 58.7467 562.697 62.4 562.697 66.56C562.697 73.3333 560.99 78.5867 557.577 82.32C554.217 86 549.07 87.84 542.137 87.84ZM531.177 65.2C531.177 66.8533 532.004 68.0267 533.657 68.72C535.31 69.36 538.137 69.68 542.137 69.68C546.137 69.68 548.964 69.36 550.617 68.72C552.27 68.0267 553.097 66.8533 553.097 65.2C553.097 63.6 552.27 62.48 550.617 61.84C548.964 61.2 546.137 60.88 542.137 60.88C538.137 60.88 535.31 61.2 533.657 61.84C532.004 62.48 531.177 63.6 531.177 65.2Z" stroke="#FFFFFE" stroke-width="4" mask="url(#path-1-outside-1_13_5)"/>
</svg>
