<svg width="450" height="109" viewBox="0 0 450 109" fill="none" xmlns="http://www.w3.org/2000/svg">
<path d="M105.6 83.16C100.373 83.16 95.6533 82.0933 91.44 79.96C87.28 77.7733 84 74.5467 81.6 70.28C79.2 66.0133 78 60.76 78 54.52C78 48.28 79.2 42.8933 81.6 38.36C84.0533 33.8267 87.3867 30.36 91.6 27.96C95.8667 25.5067 100.72 24.28 106.16 24.28C112.453 24.28 117.28 25.16 120.64 26.92C124 28.68 125.68 31.2933 125.68 34.76C125.68 37.4267 124.96 39.64 123.52 41.4C122.08 43.1067 120.107 43.96 117.6 43.96C115.467 43.96 113.387 43.6933 111.36 43.16C109.387 42.5733 107.067 42.28 104.4 42.28C100.987 42.28 98.2933 43.2667 96.32 45.24C94.3467 47.2133 93.36 49.8 93.36 53C93.36 56.1467 94.3467 58.7867 96.32 60.92C98.2933 63 100.987 64.04 104.4 64.04C106.213 64.04 107.867 63.9067 109.36 63.64C110.907 63.32 112.4 63 113.84 62.68C115.333 62.36 116.933 62.2 118.64 62.2C121.467 62.2 123.547 63.1333 124.88 65C126.213 66.8133 126.88 69.08 126.88 71.8C126.88 74.52 125.893 76.7333 123.92 78.44C121.947 80.0933 119.333 81.2933 116.08 82.04C112.88 82.7867 109.387 83.16 105.6 83.16Z" fill="#FF8906"/>
<path d="M138.569 83C136.062 83 134.115 82.28 132.729 80.84C131.342 79.4 130.649 77.5867 130.649 75.4V49.16C130.649 46.8667 131.342 44.9733 132.729 43.48C134.115 41.9333 136.062 41.16 138.569 41.16C141.075 41.16 142.995 41.9333 144.329 43.48C145.662 44.9733 146.329 46.8133 146.329 49V50.68H147.849C148.062 47.8533 149.129 45.5333 151.049 43.72C152.969 41.9067 155.235 41 157.849 41C160.462 41 162.515 41.8 164.009 43.4C165.555 45 166.329 47.1333 166.329 49.8C166.329 52.3067 165.609 54.3867 164.169 56.04C162.729 57.6933 160.889 58.52 158.649 58.52C156.782 58.52 155.209 58.0933 153.929 57.24C152.702 56.3333 151.795 55.2933 151.209 54.12C149.502 53.9067 148.249 54.0933 147.449 54.68C146.702 55.2133 146.329 56.3067 146.329 57.96V75.4C146.329 77.5867 145.662 79.4 144.329 80.84C142.995 82.28 141.075 83 138.569 83Z" fill="#FF8906"/>
<path d="M166.891 62.2C166.891 57.9867 167.718 54.28 169.371 51.08C171.078 47.88 173.478 45.3733 176.571 43.56C179.718 41.7467 183.451 40.84 187.771 40.84C191.131 40.84 194.145 41.4533 196.811 42.68C199.531 43.9067 201.665 45.56 203.211 47.64C204.758 49.6667 205.531 51.9067 205.531 54.36C205.531 56.92 204.785 58.7333 203.291 59.8C201.798 60.8667 199.585 61.4 196.651 61.4H179.851C179.851 62.7867 180.385 63.9333 181.451 64.84C182.571 65.7467 184.438 66.2 187.051 66.2C188.385 66.2 189.611 66.0667 190.731 65.8C191.905 65.5333 193.078 65.2933 194.251 65.08C195.478 64.8133 196.838 64.68 198.331 64.68C200.465 64.68 202.225 65.4533 203.611 67C204.998 68.4933 205.691 70.5733 205.691 73.24C205.691 76.3867 204.065 78.84 200.811 80.6C197.611 82.36 193.398 83.24 188.171 83.24C184.491 83.24 181.025 82.52 177.771 81.08C174.571 79.64 171.958 77.3733 169.931 74.28C167.905 71.1333 166.891 67.1067 166.891 62.2ZM192.811 58.76C193.611 58.76 193.878 58.3867 193.611 57.64C193.398 56.8933 192.758 56.12 191.691 55.32C190.625 54.52 189.078 54.12 187.051 54.12C184.705 54.12 182.945 54.6267 181.771 55.64C180.651 56.6533 180.091 57.6933 180.091 58.76H192.811Z" fill="#FF8906"/>
<path d="M223.561 83C213.854 83 209.001 75.8533 209.001 61.56C209.001 55.3733 210.201 50.44 212.601 46.76C215.001 43.0267 218.601 41.16 223.401 41.16C226.014 41.16 228.121 41.6933 229.721 42.76C231.374 43.8267 232.654 45.2933 233.561 47.16C234.521 48.9733 235.214 51.08 235.641 53.48L235.881 53.4V29.16C235.881 26.9733 236.521 25.1333 237.801 23.64C239.134 22.0933 241.054 21.32 243.561 21.32C246.014 21.32 247.827 22.0933 249.001 23.64C250.227 25.1333 250.841 27.0267 250.841 29.32V65.32C250.841 67.1333 250.974 68.8133 251.241 70.36C251.561 71.8533 251.801 73.3467 251.961 74.84C252.121 76.8667 251.694 78.6267 250.681 80.12C249.721 81.56 247.987 82.4933 245.481 82.92C242.227 83.4533 239.801 82.8933 238.201 81.24C236.654 79.5867 235.881 77.1333 235.881 73.88V70.92H234.361C234.361 74.8133 233.374 77.8 231.401 79.88C229.481 81.96 226.867 83 223.561 83ZM222.361 60.84C222.361 62.4933 222.867 63.72 223.881 64.52C224.894 65.32 226.707 65.72 229.321 65.72C231.987 65.72 233.827 65.32 234.841 64.52C235.854 63.72 236.361 62.4933 236.361 60.84C236.361 59.1333 235.854 57.9067 234.841 57.16C233.881 56.36 232.067 55.96 229.401 55.96C226.734 55.96 224.894 56.36 223.881 57.16C222.867 57.9067 222.361 59.1333 222.361 60.84Z" fill="#FF8906"/>
<path d="M255.485 31.88C255.485 29.5867 256.178 27.7467 257.565 26.36C259.005 24.92 260.978 24.2 263.485 24.2C266.152 24.2 268.125 24.8933 269.405 26.28C270.738 27.6667 271.405 29.5067 271.405 31.8C271.405 34.04 270.738 35.8533 269.405 37.24C268.125 38.5733 266.152 39.24 263.485 39.24C260.872 39.24 258.872 38.5733 257.485 37.24C256.152 35.8533 255.485 34.0667 255.485 31.88ZM263.485 83C260.978 83 259.112 82.3067 257.885 80.92C256.658 79.5333 256.045 77.8 256.045 75.72V48.36C256.045 46.0667 256.658 44.2533 257.885 42.92C259.112 41.5867 260.978 40.92 263.485 40.92C265.992 40.92 267.858 41.5867 269.085 42.92C270.365 44.2533 271.005 46.0133 271.005 48.2V75.72C271.005 77.8 270.338 79.5333 269.005 80.92C267.725 82.3067 265.885 83 263.485 83Z" fill="#FF8906"/>
<path d="M296.134 83.48C291.868 83.48 288.161 82.2533 285.014 79.8C281.868 77.2933 279.441 73.88 277.734 69.56C276.028 65.1867 275.174 60.2533 275.174 54.76C275.174 49.64 275.921 45.16 277.414 41.32C278.961 37.4267 281.041 34.2 283.654 31.64C286.321 29.0267 289.388 27.08 292.854 25.8C296.374 24.4667 300.081 23.8 303.974 23.8C311.121 23.8 316.401 24.8133 319.814 26.84C323.281 28.8133 325.014 31.3733 325.014 34.52C325.014 36.9733 324.374 39.1333 323.094 41C321.868 42.8667 320.001 43.8 317.494 43.8C315.788 43.8 314.161 43.64 312.614 43.32C311.121 43 309.574 42.7067 307.974 42.44C306.428 42.12 304.694 41.96 302.774 41.96C298.561 41.96 295.521 43.16 293.654 45.56C291.841 47.96 290.934 50.9733 290.934 54.6C290.934 57.5333 291.521 59.9333 292.694 61.8C293.921 63.6667 295.521 65.0533 297.494 65.96C299.521 66.8133 301.761 67.24 304.214 67.24C306.241 67.24 308.134 66.7867 309.894 65.88C311.654 64.9733 312.774 63.2933 313.254 60.84H309.334C307.468 60.84 306.028 60.28 305.014 59.16C304.001 57.9867 303.494 56.4933 303.494 54.68C303.494 52.8667 304.001 51.4 305.014 50.28C306.028 49.16 307.468 48.6 309.334 48.6H318.934C322.401 48.6 324.828 49.5333 326.214 51.4C327.654 53.2133 328.374 55.9333 328.374 59.56V74.52C328.374 77.2933 327.628 79.4 326.134 80.84C324.641 82.28 322.668 83 320.214 83C317.601 83 315.548 82.28 314.054 80.84C312.561 79.4 311.814 77.2933 311.814 74.52V69.56H310.374C310.374 74.4133 309.148 77.96 306.694 80.2C304.241 82.3867 300.961 83.48 296.854 83.48H296.134Z" fill="#F25F4C"/>
<path d="M352.137 83.16C345.897 83.16 340.91 81.32 337.177 77.64C333.497 73.9067 331.657 68.6533 331.657 61.88C331.657 57.72 332.51 54.0667 334.217 50.92C335.924 47.7733 338.297 45.32 341.337 43.56C344.43 41.7467 348.03 40.84 352.137 40.84C356.724 40.84 360.537 41.7467 363.577 43.56C366.617 45.32 368.884 47.7733 370.377 50.92C371.924 54.0667 372.697 57.72 372.697 61.88C372.697 68.6533 370.99 73.9067 367.577 77.64C364.217 81.32 359.07 83.16 352.137 83.16ZM341.177 60.52C341.177 62.1733 342.004 63.3467 343.657 64.04C345.31 64.68 348.137 65 352.137 65C356.137 65 358.964 64.68 360.617 64.04C362.27 63.3467 363.097 62.1733 363.097 60.52C363.097 58.92 362.27 57.8 360.617 57.16C358.964 56.52 356.137 56.2 352.137 56.2C348.137 56.2 345.31 56.52 343.657 57.16C342.004 57.8 341.177 58.92 341.177 60.52Z" fill="#F25F4C"/>
</svg>
