<svg width="185" height="40" viewBox="0 0 185 40" fill="none" xmlns="http://www.w3.org/2000/svg">
<path d="M17.3918 39.1C14.1251 39.1 11.1751 38.4333 8.5418 37.1C5.9418 35.7333 3.8918 33.7167 2.3918 31.05C0.891797 28.3833 0.141797 25.1 0.141797 21.2C0.141797 17.3 0.891797 13.9333 2.3918 11.1C3.92513 8.26667 6.00846 6.1 8.6418 4.6C11.3085 3.06667 14.3418 2.3 17.7418 2.3C21.6751 2.3 24.6918 2.85 26.7918 3.95C28.8918 5.05 29.9418 6.68333 29.9418 8.85C29.9418 10.5167 29.4918 11.9 28.5918 13C27.6918 14.0667 26.4585 14.6 24.8918 14.6C23.5585 14.6 22.2585 14.4333 20.9918 14.1C19.7585 13.7333 18.3085 13.55 16.6418 13.55C14.5085 13.55 12.8251 14.1667 11.5918 15.4C10.3585 16.6333 9.7418 18.25 9.7418 20.25C9.7418 22.2167 10.3585 23.8667 11.5918 25.2C12.8251 26.5 14.5085 27.15 16.6418 27.15C17.7751 27.15 18.8085 27.0667 19.7418 26.9C20.7085 26.7 21.6418 26.5 22.5418 26.3C23.4751 26.1 24.4751 26 25.5418 26C27.3085 26 28.6085 26.5833 29.4418 27.75C30.2751 28.8833 30.6918 30.3 30.6918 32C30.6918 33.7 30.0751 35.0833 28.8418 36.15C27.6085 37.1833 25.9751 37.9333 23.9418 38.4C21.9418 38.8667 19.7585 39.1 17.3918 39.1ZM37.9973 39C36.4306 39 35.2139 38.55 34.3473 37.65C33.4806 36.75 33.0473 35.6167 33.0473 34.25V17.85C33.0473 16.4167 33.4806 15.2333 34.3473 14.3C35.2139 13.3333 36.4306 12.85 37.9973 12.85C39.5639 12.85 40.7639 13.3333 41.5973 14.3C42.4306 15.2333 42.8473 16.3833 42.8473 17.75V18.8H43.7973C43.9306 17.0333 44.5973 15.5833 45.7973 14.45C46.9973 13.3167 48.4139 12.75 50.0473 12.75C51.6806 12.75 52.9639 13.25 53.8973 14.25C54.8639 15.25 55.3473 16.5833 55.3473 18.25C55.3473 19.8167 54.8973 21.1167 53.9973 22.15C53.0973 23.1833 51.9473 23.7 50.5473 23.7C49.3806 23.7 48.3973 23.4333 47.5973 22.9C46.8306 22.3333 46.2639 21.6833 45.8973 20.95C44.8306 20.8167 44.0473 20.9333 43.5473 21.3C43.0806 21.6333 42.8473 22.3167 42.8473 23.35V34.25C42.8473 35.6167 42.4306 36.75 41.5973 37.65C40.7639 38.55 39.5639 39 37.9973 39ZM55.6988 26C55.6988 23.3667 56.2155 21.05 57.2488 19.05C58.3155 17.05 59.8155 15.4833 61.7488 14.35C63.7155 13.2167 66.0488 12.65 68.7488 12.65C70.8488 12.65 72.7322 13.0333 74.3988 13.8C76.0988 14.5667 77.4322 15.6 78.3988 16.9C79.3655 18.1667 79.8488 19.5667 79.8488 21.1C79.8488 22.7 79.3822 23.8333 78.4488 24.5C77.5155 25.1667 76.1322 25.5 74.2988 25.5H63.7988C63.7988 26.3667 64.1322 27.0833 64.7988 27.65C65.4988 28.2167 66.6655 28.5 68.2988 28.5C69.1322 28.5 69.8988 28.4167 70.5988 28.25C71.3322 28.0833 72.0655 27.9333 72.7988 27.8C73.5655 27.6333 74.4155 27.55 75.3488 27.55C76.6822 27.55 77.7822 28.0333 78.6488 29C79.5155 29.9333 79.9488 31.2333 79.9488 32.9C79.9488 34.8667 78.9322 36.4 76.8988 37.5C74.8988 38.6 72.2655 39.15 68.9988 39.15C66.6988 39.15 64.5322 38.7 62.4988 37.8C60.4988 36.9 58.8655 35.4833 57.5988 33.55C56.3322 31.5833 55.6988 29.0667 55.6988 26ZM71.8988 23.85C72.3988 23.85 72.5655 23.6167 72.3988 23.15C72.2655 22.6833 71.8655 22.2 71.1988 21.7C70.5322 21.2 69.5655 20.95 68.2988 20.95C66.8322 20.95 65.7322 21.2667 64.9988 21.9C64.2988 22.5333 63.9488 23.1833 63.9488 23.85H71.8988ZM91.1172 39C85.0505 39 82.0172 34.5333 82.0172 25.6C82.0172 21.7333 82.7672 18.65 84.2672 16.35C85.7672 14.0167 88.0172 12.85 91.0172 12.85C92.6505 12.85 93.9672 13.1833 94.9672 13.85C96.0005 14.5167 96.8005 15.4333 97.3672 16.6C97.9672 17.7333 98.4005 19.05 98.6672 20.55L98.8172 20.5V5.35C98.8172 3.98333 99.2172 2.83333 100.017 1.9C100.851 0.933332 102.051 0.449999 103.617 0.449999C105.151 0.449999 106.284 0.933332 107.017 1.9C107.784 2.83333 108.167 4.01667 108.167 5.45V27.95C108.167 29.0833 108.251 30.1333 108.417 31.1C108.617 32.0333 108.767 32.9667 108.867 33.9C108.967 35.1667 108.701 36.2667 108.067 37.2C107.467 38.1 106.384 38.6833 104.817 38.95C102.784 39.2833 101.267 38.9333 100.267 37.9C99.3005 36.8667 98.8172 35.3333 98.8172 33.3V31.45H97.8672C97.8672 33.8833 97.2505 35.75 96.0172 37.05C94.8172 38.35 93.1839 39 91.1172 39ZM90.3672 25.15C90.3672 26.1833 90.6839 26.95 91.3172 27.45C91.9505 27.95 93.0839 28.2 94.7172 28.2C96.3839 28.2 97.5339 27.95 98.1672 27.45C98.8005 26.95 99.1172 26.1833 99.1172 25.15C99.1172 24.0833 98.8005 23.3167 98.1672 22.85C97.5672 22.35 96.4339 22.1 94.7672 22.1C93.1005 22.1 91.9505 22.35 91.3172 22.85C90.6839 23.3167 90.3672 24.0833 90.3672 25.15ZM111.07 7.05C111.07 5.61666 111.503 4.46667 112.37 3.6C113.27 2.7 114.503 2.25 116.07 2.25C117.737 2.25 118.97 2.68333 119.77 3.55C120.603 4.41666 121.02 5.56666 121.02 7C121.02 8.4 120.603 9.53333 119.77 10.4C118.97 11.2333 117.737 11.65 116.07 11.65C114.437 11.65 113.187 11.2333 112.32 10.4C111.487 9.53333 111.07 8.41666 111.07 7.05ZM116.07 39C114.503 39 113.337 38.5667 112.57 37.7C111.803 36.8333 111.42 35.75 111.42 34.45V17.35C111.42 15.9167 111.803 14.7833 112.57 13.95C113.337 13.1167 114.503 12.7 116.07 12.7C117.637 12.7 118.803 13.1167 119.57 13.95C120.37 14.7833 120.77 15.8833 120.77 17.25V34.45C120.77 35.75 120.353 36.8333 119.52 37.7C118.72 38.5667 117.57 39 116.07 39Z" fill="#FF8906"/>
<path d="M136.476 39.3C133.809 39.3 131.492 38.5333 129.526 37C127.559 35.4333 126.042 33.3 124.976 30.6C123.909 27.8667 123.376 24.7833 123.376 21.35C123.376 18.15 123.842 15.35 124.776 12.95C125.742 10.5167 127.042 8.5 128.676 6.9C130.342 5.26666 132.259 4.05 134.426 3.25C136.626 2.41667 138.942 2 141.376 2C145.842 2 149.142 2.63333 151.276 3.9C153.442 5.13333 154.526 6.73333 154.526 8.7C154.526 10.2333 154.126 11.5833 153.326 12.75C152.559 13.9167 151.392 14.5 149.826 14.5C148.759 14.5 147.742 14.4 146.776 14.2C145.842 14 144.876 13.8167 143.876 13.65C142.909 13.45 141.826 13.35 140.626 13.35C137.992 13.35 136.092 14.1 134.926 15.6C133.792 17.1 133.226 18.9833 133.226 21.25C133.226 23.0833 133.592 24.5833 134.326 25.75C135.092 26.9167 136.092 27.7833 137.326 28.35C138.592 28.8833 139.992 29.15 141.526 29.15C142.792 29.15 143.976 28.8667 145.076 28.3C146.176 27.7333 146.876 26.6833 147.176 25.15H144.726C143.559 25.15 142.659 24.8 142.026 24.1C141.392 23.3667 141.076 22.4333 141.076 21.3C141.076 20.1667 141.392 19.25 142.026 18.55C142.659 17.85 143.559 17.5 144.726 17.5H150.726C152.892 17.5 154.409 18.0833 155.276 19.25C156.176 20.3833 156.626 22.0833 156.626 24.35V33.7C156.626 35.4333 156.159 36.75 155.226 37.65C154.292 38.55 153.059 39 151.526 39C149.892 39 148.609 38.55 147.676 37.65C146.742 36.75 146.276 35.4333 146.276 33.7V30.6H145.376C145.376 33.6333 144.609 35.85 143.076 37.25C141.542 38.6167 139.492 39.3 136.926 39.3H136.476ZM171.477 39.1C167.577 39.1 164.461 37.95 162.127 35.65C159.827 33.3167 158.677 30.0333 158.677 25.8C158.677 23.2 159.211 20.9167 160.277 18.95C161.344 16.9833 162.827 15.45 164.727 14.35C166.661 13.2167 168.911 12.65 171.477 12.65C174.344 12.65 176.727 13.2167 178.627 14.35C180.527 15.45 181.944 16.9833 182.877 18.95C183.844 20.9167 184.327 23.2 184.327 25.8C184.327 30.0333 183.261 33.3167 181.127 35.65C179.027 37.95 175.811 39.1 171.477 39.1ZM164.627 24.95C164.627 25.9833 165.144 26.7167 166.177 27.15C167.211 27.55 168.977 27.75 171.477 27.75C173.977 27.75 175.744 27.55 176.777 27.15C177.811 26.7167 178.327 25.9833 178.327 24.95C178.327 23.95 177.811 23.25 176.777 22.85C175.744 22.45 173.977 22.25 171.477 22.25C168.977 22.25 167.211 22.45 166.177 22.85C165.144 23.25 164.627 23.95 164.627 24.95Z" fill="#F25F4C"/>
</svg>
