<svg width="358" height="144" viewBox="0 0 358 144" fill="none" xmlns="http://www.w3.org/2000/svg">
<path d="M40.659 97.515C32.4877 97.515 25.3807 96.0387 19.338 93.086C13.2953 90.0647 8.66033 85.8073 5.433 80.314C2.20567 74.8207 0.592 68.4347 0.592 61.156C0.592 51.062 2.48033 42.101 6.257 34.273C10.1023 26.445 15.2867 20.4023 21.81 16.145C28.3333 11.819 35.5777 9.65599 43.543 9.65599C50.959 9.65599 56.5897 11.5787 60.435 15.424C64.2803 19.2007 66.203 24.2133 66.203 30.462C66.203 34.6507 65.4477 38.0153 63.937 40.556C62.495 43.0967 60.4007 44.367 57.654 44.367C55.7313 44.367 54.2207 43.9207 53.122 43.028C52.0233 42.1353 51.474 40.8307 51.474 39.114C51.474 38.496 51.6113 37.363 51.886 35.715C52.298 33.655 52.504 32.007 52.504 30.771C52.504 24.5223 49.1737 21.398 42.513 21.398C37.981 21.398 33.655 22.8743 29.535 25.827C25.415 28.7797 22.0847 33.14 19.544 38.908C17.0033 44.6073 15.733 51.4053 15.733 59.302C15.733 67.542 18.0333 73.928 22.634 78.46C27.2347 82.9233 34.0327 85.155 43.028 85.155C47.4913 85.155 51.989 84.6057 56.521 83.507C61.1217 82.3397 66.203 80.5887 71.765 78.254C72.795 77.842 73.6533 77.636 74.34 77.636C75.4387 77.636 76.2627 78.048 76.812 78.872C77.3613 79.696 77.636 80.7603 77.636 82.065C77.636 86.2537 75.37 89.3437 70.838 91.335C65.9627 93.4637 60.8813 95.043 55.594 96.073C50.3753 97.0343 45.397 97.515 40.659 97.515ZM76.8683 97.515C74.259 97.515 72.405 96.1417 71.3063 93.395C70.2763 90.6483 69.7613 86.2537 69.7613 80.211C69.7613 71.2843 71.0317 62.804 73.5723 54.77C74.1903 52.7787 75.186 51.3367 76.5593 50.444C78.0013 49.4827 79.9927 49.002 82.5333 49.002C83.9067 49.002 84.868 49.1737 85.4173 49.517C85.9667 49.8603 86.2413 50.5127 86.2413 51.474C86.2413 52.5727 85.7263 55.0447 84.6963 58.89C84.0097 61.6367 83.4603 64.04 83.0483 66.1C82.6363 68.16 82.293 70.7007 82.0183 73.722C84.2843 67.8167 86.825 63.01 89.6403 59.302C92.4557 55.594 95.2023 52.9503 97.8803 51.371C100.627 49.7917 103.133 49.002 105.399 49.002C109.863 49.002 112.094 51.2337 112.094 55.697C112.094 56.5897 111.785 58.7527 111.167 62.186C110.618 64.9327 110.343 66.6493 110.343 67.336C110.343 69.7393 111.202 70.941 112.918 70.941C114.841 70.941 117.313 69.4303 120.334 66.409C121.227 65.5163 122.154 65.07 123.115 65.07C124.008 65.07 124.695 65.482 125.175 66.306C125.725 67.0613 125.999 68.0913 125.999 69.396C125.999 71.9367 125.313 73.928 123.939 75.37C122.017 77.3613 119.751 79.078 117.141 80.52C114.601 81.8933 111.888 82.58 109.004 82.58C105.365 82.58 102.584 81.653 100.661 79.799C98.8073 77.945 97.8803 75.4387 97.8803 72.28C97.8803 71.25 97.9833 70.22 98.1893 69.19C98.3267 67.8167 98.3953 66.8897 98.3953 66.409C98.3953 65.3103 98.0177 64.761 97.2623 64.761C96.2323 64.761 94.859 65.9283 93.1423 68.263C91.4943 70.529 89.8463 73.5503 88.1983 77.327C86.5503 81.1037 85.2113 85.0863 84.1813 89.275C83.426 92.5023 82.5333 94.6997 81.5033 95.867C80.542 96.9657 78.997 97.515 76.8683 97.515ZM162.366 74.031C163.259 74.031 163.946 74.443 164.426 75.267C164.976 76.091 165.25 77.224 165.25 78.666C165.25 81.4127 164.598 83.5413 163.293 85.052C160.753 88.142 157.148 90.9917 152.478 93.601C147.878 96.2103 142.934 97.515 137.646 97.515C130.436 97.515 124.84 95.558 120.857 91.644C116.875 87.73 114.883 82.374 114.883 75.576C114.883 70.838 115.879 66.4433 117.87 62.392C119.862 58.272 122.608 55.0103 126.11 52.607C129.681 50.2037 133.698 49.002 138.161 49.002C142.144 49.002 145.337 50.2037 147.74 52.607C150.144 54.9417 151.345 58.1347 151.345 62.186C151.345 66.924 149.629 71.0097 146.195 74.443C142.831 77.8077 137.097 80.4857 128.994 82.477C130.711 85.6357 133.973 87.215 138.779 87.215C141.869 87.215 145.371 86.1507 149.285 84.022C153.268 81.8247 156.701 78.975 159.585 75.473C160.409 74.5117 161.336 74.031 162.366 74.031ZM136.41 59.096C133.87 59.096 131.707 60.5723 129.921 63.525C128.205 66.4777 127.346 70.0483 127.346 74.237V74.443C131.398 73.4817 134.591 72.0397 136.925 70.117C139.26 68.1943 140.427 65.9627 140.427 63.422C140.427 62.1173 140.05 61.0873 139.294 60.332C138.608 59.508 137.646 59.096 136.41 59.096ZM214.865 74.031C215.758 74.031 216.444 74.443 216.925 75.267C217.474 76.091 217.749 77.224 217.749 78.666C217.749 81.4127 217.097 83.5413 215.792 85.052C212.977 88.4853 209.887 91.438 206.522 93.91C203.157 96.3133 199.827 97.515 196.531 97.515C191.312 97.515 187.33 94.4593 184.583 88.348C181.699 91.9873 179.158 94.425 176.961 95.661C174.832 96.897 172.326 97.515 169.442 97.515C165.253 97.515 161.786 95.97 159.039 92.88C156.361 89.7213 155.022 85.6357 155.022 80.623C155.022 75.1297 156.189 70.0483 158.524 65.379C160.859 60.641 164.052 56.7957 168.103 53.843C172.223 50.8217 176.824 49.0363 181.905 48.487C183.21 35.1657 185.682 23.8013 189.321 14.394C193.029 4.91799 197.87 0.179994 203.844 0.179994C206.797 0.179994 209.234 1.519 211.157 4.197C213.148 6.875 214.144 10.9263 214.144 16.351C214.144 24.0417 212.256 33.037 208.479 43.337C204.702 53.637 199.655 64.2117 193.338 75.061C193.613 79.0437 194.196 81.8933 195.089 83.61C196.05 85.3267 197.252 86.185 198.694 86.185C200.548 86.185 202.436 85.361 204.359 83.713C206.282 82.065 208.857 79.3183 212.084 75.473C212.908 74.5117 213.835 74.031 214.865 74.031ZM202.711 10.274C201.406 10.274 200.102 12.6087 198.797 17.278C197.492 21.8787 196.359 27.9213 195.398 35.406C194.505 42.8907 193.853 50.7187 193.441 58.89C201.132 42.1353 204.977 28.6767 204.977 18.514C204.977 15.9047 204.737 13.879 204.256 12.437C203.844 10.995 203.329 10.274 202.711 10.274ZM173.047 87.112C174.352 87.112 175.656 86.597 176.961 85.567C178.266 84.4683 179.914 82.477 181.905 79.593C181.218 75.885 180.875 71.7307 180.875 67.13C180.875 65.482 180.944 62.804 181.081 59.096C177.304 60.2633 174.146 62.804 171.605 66.718C169.133 70.5633 167.897 74.855 167.897 79.593C167.897 84.6057 169.614 87.112 173.047 87.112ZM222.863 42.204C219.979 42.204 217.816 41.5517 216.374 40.247C214.932 38.8737 214.211 36.9853 214.211 34.582C214.211 32.1787 215.138 30.1873 216.992 28.608C218.914 26.96 221.283 26.136 224.099 26.136C226.639 26.136 228.699 26.754 230.279 27.99C231.858 29.226 232.648 30.977 232.648 33.243C232.648 35.9897 231.755 38.187 229.97 39.835C228.184 41.4143 225.815 42.204 222.863 42.204ZM222.039 97.515C217.575 97.515 214.314 95.9357 212.254 92.777C210.262 89.6183 209.267 85.4297 209.267 80.211C209.267 77.121 209.644 73.1727 210.4 68.366C211.224 63.4907 212.254 58.9587 213.49 54.77C214.108 52.5727 214.932 51.062 215.962 50.238C216.992 49.414 218.64 49.002 220.906 49.002C224.408 49.002 226.159 50.1693 226.159 52.504C226.159 54.2207 225.506 58.2033 224.202 64.452C222.554 72.0053 221.73 77.121 221.73 79.799C221.73 81.859 222.004 83.4383 222.554 84.537C223.103 85.6357 224.03 86.185 225.335 86.185C226.571 86.185 228.116 85.3267 229.97 83.61C231.824 81.8933 234.296 79.181 237.386 75.473C238.21 74.5117 239.137 74.031 240.167 74.031C241.059 74.031 241.746 74.443 242.227 75.267C242.776 76.091 243.051 77.224 243.051 78.666C243.051 81.4127 242.398 83.5413 241.094 85.052C234.296 93.3607 227.944 97.515 222.039 97.515Z" fill="#FF8906"/>
<path d="M321.649 74.237C322.542 74.237 323.229 74.6833 323.709 75.576C324.259 76.4 324.533 77.4643 324.533 78.769C324.533 80.3483 324.293 81.5843 323.812 82.477C323.332 83.3697 322.576 84.1593 321.546 84.846C317.495 87.524 311.04 91.9187 302.182 98.03C299.504 112.244 296.037 123.437 291.779 131.608C287.522 139.779 282.132 143.865 275.608 143.865C272.106 143.865 269.257 142.766 267.059 140.569C264.862 138.44 263.763 135.625 263.763 132.123C263.763 128.896 264.484 125.634 265.926 122.338C267.368 119.042 270.046 115.231 273.96 110.905C277.943 106.579 283.539 101.635 290.749 96.073L291.058 94.116C285.634 96.382 280.312 97.515 275.093 97.515C267.403 97.515 260.639 96.0387 254.802 93.086C248.966 90.0647 244.434 85.8073 241.206 80.314C237.979 74.8207 236.365 68.4347 236.365 61.156C236.365 50.9933 238.288 42.0323 242.133 34.273C245.979 26.445 251.266 20.4023 257.995 16.145C264.793 11.819 272.381 9.65599 280.758 9.65599C288.792 9.65599 294.801 11.5443 298.783 15.321C302.835 19.029 304.86 23.973 304.86 30.153C304.86 34.2043 304.105 37.466 302.594 39.938C301.152 42.3413 299.058 43.543 296.311 43.543C294.457 43.543 292.947 43.0967 291.779 42.204C290.681 41.3113 290.131 40.0753 290.131 38.496C290.131 37.8093 290.269 36.642 290.543 34.994C290.955 33.0713 291.161 31.5607 291.161 30.462C291.161 27.578 290.269 25.3463 288.483 23.767C286.767 22.1877 283.848 21.398 279.728 21.398C274.716 21.398 270.046 22.84 265.72 25.724C261.463 28.608 258.03 32.934 255.42 38.702C252.811 44.4013 251.506 51.268 251.506 59.302C251.506 67.542 253.738 73.928 258.201 78.46C262.733 82.9233 269.257 85.155 277.771 85.155C282.509 85.155 287.453 84.0907 292.603 81.962L294.045 69.396H283.539C281.617 69.396 280.14 68.9497 279.11 68.057C278.08 67.0957 277.565 65.5507 277.565 63.422C277.565 61.4993 278.08 59.9887 279.11 58.89C280.14 57.7913 281.514 57.242 283.23 57.242H302.491C304.002 57.242 305.238 57.757 306.199 58.787C307.229 59.7483 307.641 61.156 307.435 63.01C307.229 65.2073 306.543 70.1857 305.375 77.945L304.242 85.773C309.736 81.653 314.748 78.0823 319.28 75.061C320.173 74.5117 320.963 74.237 321.649 74.237ZM276.741 133.874C278.527 133.874 280.484 131.848 282.612 127.797C284.741 123.746 286.732 117.222 288.586 108.227C283.368 112.69 279.591 116.707 277.256 120.278C274.99 123.917 273.857 127.11 273.857 129.857C273.857 132.535 274.819 133.874 276.741 133.874ZM335.611 97.515C331.559 97.515 328.092 96.5193 325.208 94.528C322.392 92.468 320.264 89.79 318.822 86.494C317.38 83.198 316.659 79.6617 316.659 75.885C316.659 70.6663 317.62 66.0313 319.543 61.98C321.534 57.86 324.212 54.667 327.577 52.401C330.941 50.0663 334.718 48.899 338.907 48.899C342.958 48.899 346.426 49.929 349.31 51.989C352.194 53.9803 354.357 56.624 355.799 59.92C357.241 63.216 357.962 66.7523 357.962 70.529C357.962 75.7477 356.966 80.417 354.975 84.537C352.983 88.5883 350.271 91.7813 346.838 94.116C343.473 96.382 339.731 97.515 335.611 97.515ZM336.744 86.391C339.078 86.391 341.035 85.1207 342.615 82.58C344.263 80.0393 345.087 76.3313 345.087 71.456C345.087 67.6793 344.4 64.8297 343.027 62.907C341.653 60.9843 340.005 60.023 338.083 60.023C335.611 60.023 333.551 61.2933 331.903 63.834C330.323 66.306 329.534 70.014 329.534 74.958C329.534 78.872 330.22 81.756 331.594 83.61C332.967 85.464 334.684 86.391 336.744 86.391Z" fill="#F25F4C"/>
</svg>
