<svg width="82" height="18" viewBox="0 0 82 18" fill="none" xmlns="http://www.w3.org/2000/svg">
<rect width="82" height="18" rx="5" fill="url(#paint0_linear_674_2886)"/>
<g filter="url(#filter0_d_674_2886)">
<path d="M23.8555 13H20.7617V4.26953H23.8789C24.7578 4.26953 25.5137 4.44531 26.1465 4.79688C26.7793 5.14453 27.2656 5.64453 27.6055 6.29688C27.9492 6.94531 28.1211 7.72266 28.1211 8.62891C28.1211 9.53906 27.9492 10.3203 27.6055 10.9727C27.2656 11.625 26.7773 12.127 26.1406 12.4785C25.5039 12.8262 24.7422 13 23.8555 13ZM22.6016 11.418H23.7734C24.5977 11.418 25.2227 11.1973 25.6484 10.7559C26.0742 10.3145 26.2871 9.60547 26.2871 8.62891C26.2871 7.66016 26.0742 6.95508 25.6484 6.51367C25.2227 6.07227 24.5977 5.85156 23.7734 5.85156H22.6016V11.418ZM29.457 6.44922H31.2734V13.3281C31.2734 14.082 31.0508 14.623 30.6055 14.9512C30.1641 15.2832 29.5586 15.4492 28.7891 15.4492H28.4258V14.0312H28.6602C28.9531 14.0312 29.1582 13.9688 29.2754 13.8438C29.3965 13.7227 29.457 13.541 29.457 13.2988V6.44922ZM30.3594 5.61133C30.0898 5.61133 29.8574 5.52148 29.6621 5.3418C29.4707 5.16211 29.375 4.94531 29.375 4.69141C29.375 4.4375 29.4707 4.22266 29.6621 4.04688C29.8574 3.86719 30.0898 3.77734 30.3594 3.77734C30.6289 3.77734 30.8594 3.86719 31.0508 4.04688C31.2461 4.22266 31.3438 4.4375 31.3438 4.69141C31.3438 4.94531 31.2461 5.16211 31.0508 5.3418C30.8594 5.52148 30.6289 5.61133 30.3594 5.61133ZM34.5957 13.123C33.9707 13.123 33.4512 12.9609 33.0371 12.6367C32.627 12.3086 32.4219 11.8203 32.4219 11.1719C32.4219 10.6836 32.5352 10.3008 32.7617 10.0234C32.9922 9.74219 33.2949 9.53711 33.6699 9.4082C34.0449 9.27539 34.4473 9.18945 34.877 9.15039C35.4473 9.0957 35.8535 9.03906 36.0957 8.98047C36.3418 8.91797 36.4648 8.78125 36.4648 8.57031V8.54102C36.4648 8.27148 36.3789 8.0625 36.207 7.91406C36.0352 7.76562 35.7871 7.69141 35.4629 7.69141C35.1387 7.69141 34.873 7.76172 34.666 7.90234C34.4629 8.04297 34.3281 8.22266 34.2617 8.44141L32.6094 8.17773C32.7656 7.60742 33.0938 7.16406 33.5938 6.84766C34.0977 6.52734 34.7227 6.36719 35.4688 6.36719C35.9531 6.36719 36.4082 6.44336 36.834 6.5957C37.2637 6.74805 37.6113 6.98828 37.877 7.31641C38.1426 7.64062 38.2754 8.0625 38.2754 8.58203V13H36.5586V12.0859H36.5059C36.3457 12.3945 36.1074 12.6445 35.791 12.8359C35.4785 13.0273 35.0801 13.123 34.5957 13.123ZM34.1504 11.1133C34.1504 11.3633 34.2402 11.5527 34.4199 11.6816C34.6035 11.8066 34.834 11.8691 35.1113 11.8691C35.5098 11.8691 35.8359 11.7539 36.0898 11.5234C36.3477 11.293 36.4766 11.0059 36.4766 10.6621V9.96484C36.4062 10.0117 36.2949 10.0547 36.1426 10.0938C35.9941 10.1328 35.8359 10.166 35.668 10.1934C35.5 10.2168 35.3496 10.2383 35.2168 10.2578C34.8965 10.3047 34.6387 10.3965 34.4434 10.5332C34.248 10.666 34.1504 10.8594 34.1504 11.1133ZM41.5508 9.21484V13H39.7344V6.44922H41.5215V7.61523H41.5859C41.7344 7.23242 41.9707 6.92969 42.2949 6.70703C42.6191 6.48047 43.0234 6.36719 43.5078 6.36719C44.1914 6.36719 44.7383 6.58789 45.1484 7.0293C45.5625 7.4668 45.7695 8.06836 45.7695 8.83398V13H43.9531V9.15625C43.9531 8.75391 43.8496 8.43945 43.6426 8.21289C43.4395 7.98633 43.1562 7.87305 42.793 7.87305C42.4258 7.87305 42.127 7.99219 41.8965 8.23047C41.666 8.46484 41.5508 8.79297 41.5508 9.21484ZM50.1582 15.5898C49.2754 15.5898 48.582 15.4141 48.0781 15.0625C47.5781 14.7148 47.2754 14.2812 47.1699 13.7617L48.8457 13.5391C48.9199 13.7383 49.0625 13.9121 49.2734 14.0605C49.4883 14.209 49.7969 14.2832 50.1992 14.2832C50.5938 14.2832 50.9199 14.1875 51.1777 13.9961C51.4355 13.8086 51.5645 13.4902 51.5645 13.041V11.8398H51.4824C51.3652 12.1133 51.1543 12.3594 50.8496 12.5781C50.5488 12.7969 50.1367 12.9062 49.6133 12.9062C49.125 12.9062 48.6797 12.793 48.2773 12.5664C47.875 12.3359 47.5547 11.9844 47.3164 11.5117C47.0781 11.0391 46.959 10.4414 46.959 9.71875C46.959 8.97266 47.0801 8.35156 47.3223 7.85547C47.5684 7.35938 47.8926 6.98828 48.2949 6.74219C48.6973 6.49219 49.1387 6.36719 49.6191 6.36719C49.9824 6.36719 50.2891 6.42969 50.5391 6.55469C50.7891 6.67578 50.9902 6.82812 51.1426 7.01172C51.2988 7.19531 51.418 7.37695 51.5 7.55664H51.5703V6.44922H53.3516V13.0703C53.3516 13.625 53.2148 14.0898 52.9414 14.4648C52.668 14.8398 52.291 15.1211 51.8105 15.3086C51.334 15.4961 50.7832 15.5898 50.1582 15.5898ZM48.8164 9.70703C48.8164 10.2695 48.9336 10.7168 49.168 11.0488C49.4062 11.377 49.748 11.541 50.1934 11.541C50.6309 11.541 50.9688 11.3789 51.207 11.0547C51.4492 10.7305 51.5703 10.2812 51.5703 9.70703C51.5703 9.13281 51.4512 8.67383 51.2129 8.33008C50.9746 7.98242 50.6348 7.80859 50.1934 7.80859C49.7441 7.80859 49.4023 7.98633 49.168 8.3418C48.9336 8.69336 48.8164 9.14844 48.8164 9.70703ZM57.7578 13.1289C57.0977 13.1289 56.5254 12.9883 56.041 12.707C55.5605 12.4219 55.1895 12.0273 54.9277 11.5234C54.6699 11.0156 54.541 10.4258 54.541 9.75391C54.541 9.07812 54.6699 8.48633 54.9277 7.97852C55.1895 7.4707 55.5605 7.07617 56.041 6.79492C56.5254 6.50977 57.0977 6.36719 57.7578 6.36719C58.4219 6.36719 58.9941 6.50977 59.4746 6.79492C59.959 7.07617 60.3301 7.4707 60.5879 7.97852C60.8496 8.48633 60.9805 9.07812 60.9805 9.75391C60.9805 10.4258 60.8496 11.0156 60.5879 11.5234C60.3301 12.0273 59.959 12.4219 59.4746 12.707C58.9941 12.9883 58.4219 13.1289 57.7578 13.1289ZM56.3867 9.74219C56.3867 10.3125 56.502 10.7832 56.7324 11.1543C56.9629 11.5254 57.3066 11.7109 57.7637 11.7109C58.2168 11.7109 58.5586 11.5254 58.7891 11.1543C59.0195 10.7832 59.1348 10.3125 59.1348 9.74219C59.1348 9.17188 59.0195 8.70312 58.7891 8.33594C58.5586 7.96875 58.2168 7.78516 57.7637 7.78516C57.3066 7.78516 56.9629 7.96875 56.7324 8.33594C56.502 8.70312 56.3867 9.17188 56.3867 9.74219Z" fill="white"/>
</g>
<defs>
<filter id="filter0_d_674_2886" x="19.7617" y="3.77734" width="41.2188" height="12.3125" filterUnits="userSpaceOnUse" color-interpolation-filters="sRGB">
<feFlood flood-opacity="0" result="BackgroundImageFix"/>
<feColorMatrix in="SourceAlpha" type="matrix" values="0 0 0 0 0 0 0 0 0 0 0 0 0 0 0 0 0 0 127 0" result="hardAlpha"/>
<feOffset dx="-1" dy="0.5"/>
<feComposite in2="hardAlpha" operator="out"/>
<feColorMatrix type="matrix" values="0 0 0 0 0 0 0 0 0 0 0 0 0 0 0 0 0 0 0.25 0"/>
<feBlend mode="normal" in2="BackgroundImageFix" result="effect1_dropShadow_674_2886"/>
<feBlend mode="normal" in="SourceGraphic" in2="effect1_dropShadow_674_2886" result="shape"/>
</filter>
<linearGradient id="paint0_linear_674_2886" x1="41" y1="18" x2="41" y2="0" gradientUnits="userSpaceOnUse">
<stop stop-color="#003D2B"/>
<stop offset="0.9" stop-color="#006A4B"/>
</linearGradient>
</defs>
</svg>
