<svg width="82" height="18" viewBox="0 0 82 18" fill="none" xmlns="http://www.w3.org/2000/svg">
<g filter="url(#filter0_ii_755_2723)">
<rect width="82" height="18" rx="5" fill="#F96B13"/>
<g filter="url(#filter1_d_755_2723)">
<path d="M24.6426 6.31836V12.5703H28.1699C28.4512 12.5703 28.666 12.6387 28.8145 12.7754C28.9668 12.9121 29.043 13.084 29.043 13.291C29.043 13.502 28.9688 13.6738 28.8203 13.8066C28.6719 13.9355 28.4551 14 28.1699 14H23.9688C23.5898 14 23.3164 13.916 23.1484 13.748C22.9844 13.5801 22.9023 13.3086 22.9023 12.9336V6.31836C22.9023 5.9668 22.9805 5.70312 23.1367 5.52734C23.2969 5.35156 23.5059 5.26367 23.7637 5.26367C24.0254 5.26367 24.2363 5.35156 24.3965 5.52734C24.5605 5.69922 24.6426 5.96289 24.6426 6.31836ZM29.6055 10.4492V6.31836C29.6055 5.9668 29.6836 5.70312 29.8398 5.52734C30 5.35156 30.209 5.26367 30.4668 5.26367C30.7363 5.26367 30.9492 5.35156 31.1055 5.52734C31.2656 5.70312 31.3457 5.9668 31.3457 6.31836V10.543C31.3457 11.0234 31.3984 11.4258 31.5039 11.75C31.6133 12.0703 31.8047 12.3203 32.0781 12.5C32.3516 12.6758 32.7344 12.7637 33.2266 12.7637C33.9062 12.7637 34.3867 12.584 34.668 12.2246C34.9492 11.8613 35.0898 11.3125 35.0898 10.5781V6.31836C35.0898 5.96289 35.168 5.69922 35.3242 5.52734C35.4805 5.35156 35.6895 5.26367 35.9512 5.26367C36.2129 5.26367 36.4238 5.35156 36.584 5.52734C36.748 5.69922 36.8301 5.96289 36.8301 6.31836V10.4492C36.8301 11.1211 36.7637 11.6816 36.6309 12.1309C36.502 12.5801 36.2559 12.9746 35.8926 13.3145C35.5801 13.6035 35.2168 13.8145 34.8027 13.9473C34.3887 14.0801 33.9043 14.1465 33.3496 14.1465C32.6895 14.1465 32.1211 14.0762 31.6445 13.9355C31.168 13.791 30.7793 13.5703 30.4785 13.2734C30.1777 12.9727 29.957 12.5898 29.8164 12.125C29.6758 11.6562 29.6055 11.0977 29.6055 10.4492ZM46.0293 11.2871C46.0293 11.5605 45.9609 11.8574 45.8242 12.1777C45.6914 12.4941 45.4805 12.8066 45.1914 13.1152C44.9023 13.4199 44.5332 13.668 44.084 13.8594C43.6348 14.0508 43.1113 14.1465 42.5137 14.1465C42.0605 14.1465 41.6484 14.1035 41.2773 14.0176C40.9062 13.9316 40.5684 13.7988 40.2637 13.6191C39.9629 13.4355 39.6855 13.1953 39.4316 12.8984C39.2051 12.6289 39.0117 12.3281 38.8516 11.9961C38.6914 11.6602 38.5703 11.3027 38.4883 10.9238C38.4102 10.5449 38.3711 10.1426 38.3711 9.7168C38.3711 9.02539 38.4707 8.40625 38.6699 7.85938C38.873 7.3125 39.1621 6.8457 39.5371 6.45898C39.9121 6.06836 40.3516 5.77148 40.8555 5.56836C41.3594 5.36523 41.8965 5.26367 42.4668 5.26367C43.1621 5.26367 43.7812 5.40234 44.3242 5.67969C44.8672 5.95703 45.2832 6.30078 45.5723 6.71094C45.8613 7.11719 46.0059 7.50195 46.0059 7.86523C46.0059 8.06445 45.9355 8.24023 45.7949 8.39258C45.6543 8.54492 45.4844 8.62109 45.2852 8.62109C45.0625 8.62109 44.8945 8.56836 44.7812 8.46289C44.6719 8.35742 44.5488 8.17578 44.4121 7.91797C44.1855 7.49219 43.918 7.17383 43.6094 6.96289C43.3047 6.75195 42.9277 6.64648 42.4785 6.64648C41.7637 6.64648 41.1934 6.91797 40.7676 7.46094C40.3457 8.00391 40.1348 8.77539 40.1348 9.77539C40.1348 10.4434 40.2285 11 40.416 11.4453C40.6035 11.8867 40.8691 12.2168 41.2129 12.4355C41.5566 12.6543 41.959 12.7637 42.4199 12.7637C42.9199 12.7637 43.3418 12.6406 43.6855 12.3945C44.0332 12.1445 44.2949 11.7793 44.4707 11.2988C44.5449 11.0723 44.6367 10.8887 44.7461 10.748C44.8555 10.6035 45.0312 10.5312 45.2734 10.5312C45.4805 10.5312 45.6582 10.6035 45.8066 10.748C45.9551 10.8926 46.0293 11.0723 46.0293 11.2871ZM47.6641 13.0859V6.31836C47.6641 5.9668 47.7441 5.70312 47.9043 5.52734C48.0645 5.35156 48.2715 5.26367 48.5254 5.26367C48.7871 5.26367 48.998 5.35156 49.1582 5.52734C49.3223 5.69922 49.4043 5.96289 49.4043 6.31836V13.0859C49.4043 13.4414 49.3223 13.707 49.1582 13.8828C48.998 14.0586 48.7871 14.1465 48.5254 14.1465C48.2754 14.1465 48.0684 14.0586 47.9043 13.8828C47.7441 13.7031 47.6641 13.4375 47.6641 13.0859ZM52.4336 5.41016H54.7012C55.291 5.41016 55.7969 5.46484 56.2188 5.57422C56.6406 5.68359 57.0234 5.88867 57.3672 6.18945C58.2617 6.95508 58.709 8.11914 58.709 9.68164C58.709 10.1973 58.6641 10.668 58.5742 11.0938C58.4844 11.5195 58.3457 11.9043 58.1582 12.248C57.9707 12.5879 57.7305 12.8926 57.4375 13.1621C57.207 13.3691 56.9551 13.5352 56.6816 13.6602C56.4082 13.7852 56.1133 13.873 55.7969 13.9238C55.4844 13.9746 55.1309 14 54.7363 14H52.4688C52.1523 14 51.9141 13.9531 51.7539 13.8594C51.5938 13.7617 51.4883 13.627 51.4375 13.4551C51.3906 13.2793 51.3672 13.0527 51.3672 12.7754V6.47656C51.3672 6.10156 51.4512 5.83008 51.6191 5.66211C51.7871 5.49414 52.0586 5.41016 52.4336 5.41016ZM53.1074 6.78711V12.6172H54.4258C54.7148 12.6172 54.9414 12.6094 55.1055 12.5938C55.2695 12.5781 55.4395 12.5391 55.6152 12.4766C55.791 12.4141 55.9434 12.3262 56.0723 12.2129C56.6543 11.7207 56.9453 10.873 56.9453 9.66992C56.9453 8.82227 56.8164 8.1875 56.5586 7.76562C56.3047 7.34375 55.9902 7.07617 55.6152 6.96289C55.2402 6.8457 54.7871 6.78711 54.2559 6.78711H53.1074Z" fill="white"/>
</g>
</g>
<defs>
<filter id="filter0_ii_755_2723" x="0" y="-2" width="83" height="24" filterUnits="userSpaceOnUse" color-interpolation-filters="sRGB">
<feFlood flood-opacity="0" result="BackgroundImageFix"/>
<feBlend mode="normal" in="SourceGraphic" in2="BackgroundImageFix" result="shape"/>
<feColorMatrix in="SourceAlpha" type="matrix" values="0 0 0 0 0 0 0 0 0 0 0 0 0 0 0 0 0 0 127 0" result="hardAlpha"/>
<feOffset dy="4"/>
<feGaussianBlur stdDeviation="2"/>
<feComposite in2="hardAlpha" operator="arithmetic" k2="-1" k3="1"/>
<feColorMatrix type="matrix" values="0 0 0 0 0 0 0 0 0 0 0 0 0 0 0 0 0 0 0.25 0"/>
<feBlend mode="normal" in2="shape" result="effect1_innerShadow_755_2723"/>
<feColorMatrix in="SourceAlpha" type="matrix" values="0 0 0 0 0 0 0 0 0 0 0 0 0 0 0 0 0 0 127 0" result="hardAlpha"/>
<feOffset dx="1" dy="-2"/>
<feGaussianBlur stdDeviation="2"/>
<feComposite in2="hardAlpha" operator="arithmetic" k2="-1" k3="1"/>
<feColorMatrix type="matrix" values="0 0 0 0 1 0 0 0 0 1 0 0 0 0 1 0 0 0 0.25 0"/>
<feBlend mode="normal" in2="effect1_innerShadow_755_2723" result="effect2_innerShadow_755_2723"/>
</filter>
<filter id="filter1_d_755_2723" x="19.2023" y="3.56367" width="39.5066" height="12.2828" filterUnits="userSpaceOnUse" color-interpolation-filters="sRGB">
<feFlood flood-opacity="0" result="BackgroundImageFix"/>
<feColorMatrix in="SourceAlpha" type="matrix" values="0 0 0 0 0 0 0 0 0 0 0 0 0 0 0 0 0 0 127 0" result="hardAlpha"/>
<feOffset dx="-2"/>
<feGaussianBlur stdDeviation="0.85"/>
<feComposite in2="hardAlpha" operator="out"/>
<feColorMatrix type="matrix" values="0 0 0 0 0 0 0 0 0 0 0 0 0 0 0 0 0 0 0.25 0"/>
<feBlend mode="normal" in2="BackgroundImageFix" result="effect1_dropShadow_755_2723"/>
<feBlend mode="normal" in="SourceGraphic" in2="effect1_dropShadow_755_2723" result="shape"/>
</filter>
</defs>
</svg>
