<svg width="82" height="18" viewBox="0 0 82 18" fill="none" xmlns="http://www.w3.org/2000/svg">
<g filter="url(#filter0_ii_807_2857)">
<rect width="82" height="18" rx="5" fill="#1339F9"/>
<g filter="url(#filter1_d_807_2857)">
<path d="M24.0156 5.41016H26.2832C26.873 5.41016 27.3789 5.46484 27.8008 5.57422C28.2227 5.68359 28.6055 5.88867 28.9492 6.18945C29.8438 6.95508 30.291 8.11914 30.291 9.68164C30.291 10.1973 30.2461 10.668 30.1562 11.0938C30.0664 11.5195 29.9277 11.9043 29.7402 12.248C29.5527 12.5879 29.3125 12.8926 29.0195 13.1621C28.7891 13.3691 28.5371 13.5352 28.2637 13.6602C27.9902 13.7852 27.6953 13.873 27.3789 13.9238C27.0664 13.9746 26.7129 14 26.3184 14H24.0508C23.7344 14 23.4961 13.9531 23.3359 13.8594C23.1758 13.7617 23.0703 13.627 23.0195 13.4551C22.9727 13.2793 22.9492 13.0527 22.9492 12.7754V6.47656C22.9492 6.10156 23.0332 5.83008 23.2012 5.66211C23.3691 5.49414 23.6406 5.41016 24.0156 5.41016ZM24.6895 6.78711V12.6172H26.0078C26.2969 12.6172 26.5234 12.6094 26.6875 12.5938C26.8516 12.5781 27.0215 12.5391 27.1973 12.4766C27.373 12.4141 27.5254 12.3262 27.6543 12.2129C28.2363 11.7207 28.5273 10.873 28.5273 9.66992C28.5273 8.82227 28.3984 8.1875 28.1406 7.76562C27.8867 7.34375 27.5723 7.07617 27.1973 6.96289C26.8223 6.8457 26.3691 6.78711 25.8379 6.78711H24.6895ZM35.5996 5.26367C36.4902 5.26367 37.2539 5.44531 37.8906 5.80859C38.5312 6.16797 39.0156 6.68164 39.3438 7.34961C39.6719 8.01367 39.8359 8.79492 39.8359 9.69336C39.8359 10.3574 39.7461 10.9609 39.5664 11.5039C39.3867 12.0469 39.1172 12.5176 38.7578 12.916C38.3984 13.3145 37.957 13.6191 37.4336 13.8301C36.9102 14.041 36.3105 14.1465 35.6348 14.1465C34.9629 14.1465 34.3613 14.0391 33.8301 13.8242C33.2988 13.6055 32.8555 13.2988 32.5 12.9043C32.1445 12.5098 31.875 12.0352 31.6914 11.4805C31.5117 10.9258 31.4219 10.3262 31.4219 9.68164C31.4219 9.02148 31.5156 8.41602 31.7031 7.86523C31.8945 7.31445 32.1699 6.8457 32.5293 6.45898C32.8887 6.07227 33.3262 5.77734 33.8418 5.57422C34.3574 5.36719 34.9434 5.26367 35.5996 5.26367ZM38.0723 9.68164C38.0723 9.05273 37.9707 8.50781 37.7676 8.04688C37.5645 7.58594 37.2734 7.23828 36.8945 7.00391C36.5195 6.76562 36.0879 6.64648 35.5996 6.64648C35.252 6.64648 34.9297 6.71289 34.6328 6.8457C34.3398 6.97461 34.0859 7.16406 33.8711 7.41406C33.6602 7.66406 33.4922 7.98438 33.3672 8.375C33.2461 8.76172 33.1855 9.19727 33.1855 9.68164C33.1855 10.1699 33.2461 10.6113 33.3672 11.0059C33.4922 11.4004 33.666 11.7285 33.8887 11.9902C34.1152 12.248 34.373 12.4414 34.6621 12.5703C34.9551 12.6992 35.2754 12.7637 35.623 12.7637C36.0684 12.7637 36.4766 12.6523 36.8477 12.4297C37.2227 12.207 37.5195 11.8633 37.7383 11.3984C37.9609 10.9336 38.0723 10.3613 38.0723 9.68164ZM48.6426 11.2871C48.6426 11.5605 48.5742 11.8574 48.4375 12.1777C48.3047 12.4941 48.0938 12.8066 47.8047 13.1152C47.5156 13.4199 47.1465 13.668 46.6973 13.8594C46.248 14.0508 45.7246 14.1465 45.127 14.1465C44.6738 14.1465 44.2617 14.1035 43.8906 14.0176C43.5195 13.9316 43.1816 13.7988 42.877 13.6191C42.5762 13.4355 42.2988 13.1953 42.0449 12.8984C41.8184 12.6289 41.625 12.3281 41.4648 11.9961C41.3047 11.6602 41.1836 11.3027 41.1016 10.9238C41.0234 10.5449 40.9844 10.1426 40.9844 9.7168C40.9844 9.02539 41.084 8.40625 41.2832 7.85938C41.4863 7.3125 41.7754 6.8457 42.1504 6.45898C42.5254 6.06836 42.9648 5.77148 43.4688 5.56836C43.9727 5.36523 44.5098 5.26367 45.0801 5.26367C45.7754 5.26367 46.3945 5.40234 46.9375 5.67969C47.4805 5.95703 47.8965 6.30078 48.1855 6.71094C48.4746 7.11719 48.6191 7.50195 48.6191 7.86523C48.6191 8.06445 48.5488 8.24023 48.4082 8.39258C48.2676 8.54492 48.0977 8.62109 47.8984 8.62109C47.6758 8.62109 47.5078 8.56836 47.3945 8.46289C47.2852 8.35742 47.1621 8.17578 47.0254 7.91797C46.7988 7.49219 46.5312 7.17383 46.2227 6.96289C45.918 6.75195 45.541 6.64648 45.0918 6.64648C44.377 6.64648 43.8066 6.91797 43.3809 7.46094C42.959 8.00391 42.748 8.77539 42.748 9.77539C42.748 10.4434 42.8418 11 43.0293 11.4453C43.2168 11.8867 43.4824 12.2168 43.8262 12.4355C44.1699 12.6543 44.5723 12.7637 45.0332 12.7637C45.5332 12.7637 45.9551 12.6406 46.2988 12.3945C46.6465 12.1445 46.9082 11.7793 47.084 11.2988C47.1582 11.0723 47.25 10.8887 47.3594 10.748C47.4688 10.6035 47.6445 10.5312 47.8867 10.5312C48.0938 10.5312 48.2715 10.6035 48.4199 10.748C48.5684 10.8926 48.6426 11.0723 48.6426 11.2871ZM56.7344 11.4219C56.7344 11.9414 56.5996 12.4082 56.3301 12.8223C56.0645 13.2363 55.6738 13.5605 55.1582 13.7949C54.6426 14.0293 54.0312 14.1465 53.3242 14.1465C52.4766 14.1465 51.7773 13.9863 51.2266 13.666C50.8359 13.4355 50.5176 13.1289 50.2715 12.7461C50.0293 12.3594 49.9082 11.9844 49.9082 11.6211C49.9082 11.4102 49.9805 11.2305 50.125 11.082C50.2734 10.9297 50.4609 10.8535 50.6875 10.8535C50.8711 10.8535 51.0254 10.9121 51.1504 11.0293C51.2793 11.1465 51.3887 11.3203 51.4785 11.5508C51.5879 11.8242 51.7051 12.0527 51.8301 12.2363C51.959 12.4199 52.1387 12.5723 52.3691 12.6934C52.5996 12.8105 52.9023 12.8691 53.2773 12.8691C53.793 12.8691 54.2109 12.75 54.5312 12.5117C54.8555 12.2695 55.0176 11.9688 55.0176 11.6094C55.0176 11.3242 54.9297 11.0938 54.7539 10.918C54.582 10.7383 54.3574 10.6016 54.0801 10.5078C53.8066 10.4141 53.4395 10.3145 52.9785 10.209C52.3613 10.0645 51.8438 9.89648 51.4258 9.70508C51.0117 9.50977 50.6816 9.24609 50.4355 8.91406C50.1934 8.57812 50.0723 8.16211 50.0723 7.66602C50.0723 7.19336 50.2012 6.77344 50.459 6.40625C50.7168 6.03906 51.0898 5.75781 51.5781 5.5625C52.0664 5.36328 52.6406 5.26367 53.3008 5.26367C53.8281 5.26367 54.2832 5.33008 54.666 5.46289C55.0527 5.5918 55.373 5.76562 55.627 5.98438C55.8809 6.19922 56.0664 6.42578 56.1836 6.66406C56.3008 6.90234 56.3594 7.13477 56.3594 7.36133C56.3594 7.56836 56.2852 7.75586 56.1367 7.92383C55.9922 8.08789 55.8105 8.16992 55.5918 8.16992C55.3926 8.16992 55.2402 8.12109 55.1348 8.02344C55.0332 7.92188 54.9219 7.75781 54.8008 7.53125C54.6445 7.20703 54.457 6.95508 54.2383 6.77539C54.0195 6.5918 53.668 6.5 53.1836 6.5C52.7344 6.5 52.3711 6.59961 52.0938 6.79883C51.8203 6.99414 51.6836 7.23047 51.6836 7.50781C51.6836 7.67969 51.7305 7.82812 51.8242 7.95312C51.918 8.07812 52.0469 8.18555 52.2109 8.27539C52.375 8.36523 52.541 8.43555 52.709 8.48633C52.877 8.53711 53.1543 8.61133 53.541 8.70898C54.0254 8.82227 54.4629 8.94727 54.8535 9.08398C55.248 9.2207 55.582 9.38672 55.8555 9.58203C56.1328 9.77734 56.3477 10.0254 56.5 10.3262C56.6562 10.623 56.7344 10.9883 56.7344 11.4219Z" fill="white"/>
</g>
</g>
<defs>
<filter id="filter0_ii_807_2857" x="0" y="-2" width="83" height="24" filterUnits="userSpaceOnUse" color-interpolation-filters="sRGB">
<feFlood flood-opacity="0" result="BackgroundImageFix"/>
<feBlend mode="normal" in="SourceGraphic" in2="BackgroundImageFix" result="shape"/>
<feColorMatrix in="SourceAlpha" type="matrix" values="0 0 0 0 0 0 0 0 0 0 0 0 0 0 0 0 0 0 127 0" result="hardAlpha"/>
<feOffset dy="4"/>
<feGaussianBlur stdDeviation="2"/>
<feComposite in2="hardAlpha" operator="arithmetic" k2="-1" k3="1"/>
<feColorMatrix type="matrix" values="0 0 0 0 0 0 0 0 0 0 0 0 0 0 0 0 0 0 0.25 0"/>
<feBlend mode="normal" in2="shape" result="effect1_innerShadow_807_2857"/>
<feColorMatrix in="SourceAlpha" type="matrix" values="0 0 0 0 0 0 0 0 0 0 0 0 0 0 0 0 0 0 127 0" result="hardAlpha"/>
<feOffset dx="1" dy="-2"/>
<feGaussianBlur stdDeviation="2"/>
<feComposite in2="hardAlpha" operator="arithmetic" k2="-1" k3="1"/>
<feColorMatrix type="matrix" values="0 0 0 0 0.378143 0 0 0 0 0.403791 0 0 0 0 0.891087 0 0 0 0.25 0"/>
<feBlend mode="normal" in2="effect1_innerShadow_807_2857" result="effect2_innerShadow_807_2857"/>
</filter>
<filter id="filter1_d_807_2857" x="19.2492" y="3.56367" width="37.4852" height="12.2828" filterUnits="userSpaceOnUse" color-interpolation-filters="sRGB">
<feFlood flood-opacity="0" result="BackgroundImageFix"/>
<feColorMatrix in="SourceAlpha" type="matrix" values="0 0 0 0 0 0 0 0 0 0 0 0 0 0 0 0 0 0 127 0" result="hardAlpha"/>
<feOffset dx="-2"/>
<feGaussianBlur stdDeviation="0.85"/>
<feComposite in2="hardAlpha" operator="out"/>
<feColorMatrix type="matrix" values="0 0 0 0 0 0 0 0 0 0 0 0 0 0 0 0 0 0 0.25 0"/>
<feBlend mode="normal" in2="BackgroundImageFix" result="effect1_dropShadow_807_2857"/>
<feBlend mode="normal" in="SourceGraphic" in2="effect1_dropShadow_807_2857" result="shape"/>
</filter>
</defs>
</svg>
